<svg width="18" height="18" viewBox="0 0 18 18" fill="none" xmlns="http://www.w3.org/2000/svg">
<g clip-path="url(#clip0_5605_9475)">
<path d="M14.2872 16.9165C14.1914 14.9269 13.4185 13.2503 11.4334 12.5981C10.0663 12.1493 7.8075 12.1685 6.44654 12.638C4.55192 13.2925 3.73304 14.9913 3.70544 16.9157C2.27623 16.3425 1.27794 15.0427 0.735086 13.6363C-0.310749 10.9254 -0.295414 6.06077 1.13609 3.48726C3.02457 0.0942793 7.47397 -0.247167 10.9511 0.113462C15.7586 0.612204 17.71 3.38291 17.9706 8.05114C18.1508 11.2769 17.5558 15.4341 14.2872 16.9165ZM8.36722 4.12489C4.66693 4.51007 4.79038 10.3791 8.34115 10.6277C10.5225 10.7804 12.1503 10.1835 12.296 7.74959C12.4562 5.0794 10.9588 3.8548 8.36646 4.12412L8.36722 4.12489Z" fill="#7C7C7C"/>
<path d="M8.36737 13.946C9.35953 13.8669 10.9252 13.9559 11.7157 14.6158C12.5867 15.3417 12.5875 16.4934 12.645 17.5323C12.5024 17.7372 10.262 17.9743 9.88092 17.9942C9.20618 18.028 5.80262 17.916 5.39088 17.5699C5.13863 17.3581 5.5197 15.7936 5.66231 15.4598C6.14306 14.3304 7.23029 14.0373 8.36737 13.9467V13.946Z" fill="#7C7C7C"/>
<path d="M8.28648 5.81022C8.74116 5.73349 9.75862 5.73425 10.1428 5.98746C10.7922 6.41638 10.8006 8.42823 10.1405 8.81725C9.69498 9.07967 8.4337 9.05588 7.95525 8.86712C7.29509 8.60778 7.30659 7.27729 7.40473 6.69261C7.47987 6.24527 7.84637 5.88464 8.28648 5.81022Z" fill="#7C7C7C"/>
</g>
<defs>
<clipPath id="clip0_5605_9475">
<rect width="18" height="18" fill="white"/>
</clipPath>
</defs>
</svg>
