<svg width="406" height="406" viewBox="0 0 406 406" fill="none" xmlns="http://www.w3.org/2000/svg">
<path d="M135.849 230.649C136.437 231.887 137.168 233.45 138.609 233.653C141.776 233.653 146.384 231.217 145.045 227.807C144.332 225.996 143.519 224.227 142.609 222.508C142.101 220.722 141.37 219.037 139.564 218.814C137.893 218.924 136.298 219.548 134.996 220.6C131.2 222.508 133.311 225.208 135.849 230.649ZM133.636 222.894C134.123 221.372 137.168 220.052 139.279 219.93C140.639 220.113 141.086 222.123 141.797 223.361C142.852 225.147 145.491 228.253 144.192 230.243C143.573 231.089 142.759 231.772 141.819 232.236C140.878 232.699 139.84 232.927 138.792 232.902C137.473 232.516 136.985 230.872 136.295 229.248C135.605 227.624 132.986 224.985 133.636 222.894ZM155.438 219.382C154.098 215.931 152.332 211.485 149.145 213.536C147.115 214.449 145.248 215.079 144.618 216.54C144.423 217.232 144.393 217.959 144.531 218.664C144.668 219.37 144.969 220.033 145.41 220.6C146.669 222.955 147.988 229.877 152.474 227.502C156.575 225.594 158.341 224.924 155.438 219.382ZM149.348 226.203C148.42 224.816 147.619 223.348 146.953 221.818C145.491 218.895 142.893 216.642 147.744 215.261C151.947 213.028 151.804 214.652 154.078 219.321C154.789 220.823 155.783 221.473 156.108 223.686C156.291 225.005 155.012 225.716 153.591 226.101C153.611 225.452 151.094 228.334 149.409 226.203H149.348ZM166.278 210.734C164.959 207.994 164.472 207.608 163.233 207.304C161.853 207.325 160.513 207.771 159.397 208.583C155.337 210.816 156.575 212.115 158.138 215.891C161.305 223.523 162.462 223.32 167.476 219.951C167.838 219.78 168.161 219.538 168.428 219.239C168.694 218.941 168.898 218.592 169.027 218.213C169.155 217.834 169.207 217.434 169.177 217.035C169.148 216.636 169.039 216.247 168.856 215.891C168.141 214.104 167.279 212.379 166.278 210.734ZM166.035 219.748C161 222.001 162.3 221.615 158.808 215.485C158.118 214.124 157.022 213.312 157.245 211.222C157.509 210.166 159.011 209.455 159.924 209.192C164.593 207.162 163.984 208.583 167.009 213.921C167.914 215.006 168.454 216.349 168.552 217.758C168.268 219.362 165.426 219.748 166.035 219.748ZM183.696 196.463C181.239 198.148 182.62 200.889 184.183 203.426C185.807 207.162 187.106 210.937 190.801 208.583C194.434 206.756 196.058 206.553 194.455 202.756C193.784 200.988 192.969 199.277 192.019 197.641C189.948 193.073 187.999 194.068 183.696 196.463ZM185.908 196.342C187.228 195.631 188.608 194.941 189.705 195.712C190.772 196.861 191.539 198.256 191.938 199.772C193.034 202.188 196.525 205.862 192.689 207.02C189.258 208.826 187.451 209.374 186.051 205.578C185.279 203.934 182.904 200.219 183.046 198.25C183.757 197.215 184.345 197.174 185.908 196.342ZM195.571 194.088C198.007 199.265 199.185 205.091 203.407 202.411C206.066 201.072 208.929 199.854 207.467 197.032C206.713 195.213 205.859 193.438 204.909 191.713C203.59 188.973 203.082 188.567 201.844 188.283C200.464 188.303 199.124 188.75 198.007 189.561L197.053 190.069C196.686 190.229 196.355 190.461 196.08 190.752C195.805 191.043 195.592 191.386 195.453 191.762C195.315 192.138 195.254 192.537 195.274 192.937C195.294 193.337 195.395 193.729 195.571 194.088ZM202.473 189.379C203.532 190.531 204.292 191.925 204.686 193.439C206.351 196.26 208.563 199.529 205.457 200.666C200.464 203.244 200.565 202.574 198.454 198.087C196.241 194.332 194.171 191.997 198.068 190.353C198.068 190.698 200.971 188.425 202.473 189.379ZM172.937 210.511C171.11 207.507 171.841 207.162 169.202 203.69C170.054 207.466 170.623 207.019 172.084 210.369C172.853 212.478 173.883 214.483 175.149 216.337C175.434 216.033 175.758 216.053 174.703 213.942C174.192 212.76 173.602 211.614 172.937 210.511ZM178.438 204.32C177.786 202.788 176.969 201.331 176.002 199.975C176.294 201.638 176.916 203.225 177.829 204.644C179.453 207.507 180.042 210.349 181.991 212.764C183.006 211.831 180.123 208.4 178.438 204.32ZM55.3388 268.853C53.0246 264.529 53.593 264.205 51.4412 262.073C51.7259 263.573 52.3055 265.001 53.1464 266.275C54.7704 269.117 55.3794 271.979 57.3079 274.395C57.9169 273.847 55.4606 269.077 55.3388 268.853ZM63.5197 271.269C64.0881 270.721 63.7024 270.599 63.3167 269.625C62.5253 267.862 61.6445 266.141 60.6777 264.468C59.8826 262.431 58.8467 260.495 57.5921 258.703C58.5056 262.662 59.0537 262.093 60.495 265.443C61.2468 267.508 62.2635 269.466 63.5197 271.269ZM74.3802 258.135C73.8901 256.41 73.0467 254.806 71.9036 253.425C70.4623 252.228 69.0413 252.958 67.6609 253.628C64.3317 255.252 63.9257 255.658 63.7836 256.897C63.8284 258.401 64.3078 259.861 65.164 261.099C68.0669 266.6 67.4376 269.219 73.284 266.356C74.0287 266.216 74.7159 265.86 75.2607 265.334C75.8054 264.807 76.1839 264.132 76.3493 263.393C76.0399 261.529 75.3711 259.743 74.3802 258.135ZM75.5373 264.347C74.096 265.93 73.081 265.788 71.4773 266.641C69.8736 267.493 69.0819 266.295 68.1887 264.996C65.4279 259.434 63.7024 258.074 65.1031 256.348C65.3389 256.067 65.6299 255.837 65.9582 255.673C66.2864 255.509 66.6449 255.414 67.0113 255.394C69.9142 253.892 71.0713 253.364 72.5329 255.983C74.705 260.977 76.2681 262.195 75.5373 264.347ZM86.3369 253.486C85.464 249.995 83.1904 245.691 80.2469 247.64C78.2169 248.553 76.3493 249.183 75.72 250.644C75.5221 251.334 75.4887 252.061 75.6227 252.766C75.7567 253.471 76.0542 254.135 76.4914 254.704C77.7703 257.079 79.0898 263.981 83.5558 261.626C87.4331 259.921 87.6158 259.596 87.8594 258.642C87.978 257.724 87.9039 256.792 87.6417 255.904C87.3796 255.016 86.9352 254.193 86.3369 253.486ZM84.4896 260.287C81.0995 262.053 80.6326 260.835 80.4296 260.469C79.8181 259.72 79.3314 258.877 78.9883 257.972C77.2222 253.567 73.4667 250.867 78.8462 249.304C83.5761 246.787 82.9062 249.304 85.8903 254.603C86.5639 255.544 86.9897 256.64 87.1286 257.79C87.291 258.886 86.479 259.272 84.4896 260.287ZM89.0977 242.991C88.3898 243.361 87.8503 243.988 87.5898 244.742C87.3294 245.497 87.3677 246.323 87.697 247.051C90.0315 251.72 91.1683 258.175 95.6343 255.333C98.9432 253.628 99.877 253.303 99.877 252.085C100.263 250.055 96.6696 243.823 96.7711 243.965C94.802 239.743 92.975 241.022 89.0977 242.991ZM91.9803 242.707C95.1674 241.063 95.6343 244.026 97.8673 248.046C99.1056 250.076 100.405 252.106 98.1718 253.283C97.4697 253.678 96.7443 254.031 95.9997 254.339C91.8179 256.125 92.9547 254.197 89.9097 249.548C89.2601 248.228 88.1436 247.376 88.3669 245.285C88.6308 244.108 89.6458 243.925 91.9803 242.707ZM115.813 239.54C117.193 242.382 117.68 243.032 118.878 243.194C121.984 243.194 123.547 240.981 123.547 241.611C125.922 239.905 126.754 239.581 122.796 232.07C121.557 229.37 121.091 228.761 119.751 228.416C118.081 228.543 116.489 229.173 115.183 230.222C110.839 232.354 114.412 235.845 115.813 239.54ZM119.365 229.39C120.705 229.593 121.172 231.582 121.882 232.861C122.593 234.14 123.628 235.906 124.521 237.693C125.232 239.053 124.42 240.616 123.851 240.717C118.269 243.681 118.147 242.747 116.442 238.83C116.198 238.281 115.995 238.281 114.067 234.384C112.341 231.176 116.868 229.573 119.365 229.39ZM101.501 242.281C102.272 243.62 104.546 248.371 105.886 250.522C106.86 249.548 104.242 246.219 102.678 242.727C101.985 241.024 100.996 239.457 99.7552 238.099C100.041 239.599 100.636 241.023 101.501 242.281ZM108.992 239.54C109.667 240.669 110.25 241.85 110.738 243.072C111.367 244.311 112.402 246.097 112.889 246.848C113.864 245.894 111.225 242.463 109.682 239.053C108.971 237.314 107.961 235.713 106.698 234.323C107.124 236.192 107.903 237.962 108.992 239.54ZM129.068 229.796C128.504 228.075 127.552 226.505 126.287 225.208C126.978 228.456 127.79 228.598 129.109 231.643C129.312 232.131 131.687 238.099 132.337 237.429C132.986 236.759 128.967 229.593 129.068 229.796ZM124.054 208.522C125.455 210.836 127.038 214.246 126.937 214.023C127.1 214.391 127.342 214.72 127.645 214.985C127.948 215.25 128.306 215.445 128.693 215.557C129.08 215.67 129.486 215.696 129.884 215.634C130.282 215.572 130.662 215.424 130.997 215.2C133.311 213.718 137.594 213.84 134.509 208.116C133.745 206.156 132.836 204.256 131.789 202.432C129.921 199.346 126.511 201.965 125.699 202.208C124.84 202.573 124.071 203.121 123.445 203.812C122.288 206.045 123.831 207.628 124.054 208.522ZM127.302 202.432C131.098 200.97 130.53 203.061 133.778 208.522C136.62 213.252 133.778 212.582 133.778 213.536C133.494 213.252 133.778 213.536 133.25 213.536C127.384 216.012 128.378 214.754 124.684 208.278C123.689 206.248 123.263 205.294 123.912 204.218C124.894 203.375 126.052 202.765 127.302 202.432ZM136.458 202.107C137.232 204.141 138.113 206.133 139.097 208.075C139.258 208.445 139.501 208.774 139.808 209.037C140.114 209.301 140.476 209.491 140.867 209.594C141.257 209.698 141.666 209.712 142.062 209.635C142.459 209.558 142.833 209.393 143.157 209.151C144.679 208.298 146.648 207.953 147.602 206.431C147.879 205.766 147.974 205.04 147.878 204.327C147.782 203.613 147.497 202.938 147.054 202.371C145.775 199.914 145.572 198.798 144.334 196.504C142.304 192.911 138 196.626 138.244 196.382C137.246 196.672 136.356 197.251 135.686 198.047C135.179 199.062 135.422 200.036 136.458 202.107ZM138.488 196.829C141.025 195.875 141.959 195.185 143.461 197.844C146.303 204.238 150.201 206.634 143.096 208.42C140.294 209.455 140.051 208.034 138.285 204.746C134.752 198.108 136.011 198.453 138.549 196.91L138.488 196.829ZM162.117 189.886C164.918 195.489 164.999 196.24 166.461 196.91C168.596 196.888 170.65 196.095 172.247 194.677C172.828 194.015 173.178 193.181 173.244 192.302C173.31 191.423 173.088 190.547 172.612 189.805C172.084 189.501 172.287 188.567 169.709 183.715C168.004 180.67 163.619 182.659 161.345 185.258C160.533 186.76 161.569 188.019 162.117 189.886ZM162.117 185.258C162.726 184.385 166.177 183.228 165.994 183.35C168.917 182.253 169.262 185.806 171.455 189.115C172.167 190.071 172.551 191.232 172.551 192.424C172.348 194.23 170.765 194.799 168.897 195.428C166.319 196.951 165.121 193.885 164.045 191.876C162.969 189.866 160.655 186.76 162.076 185.258H162.117ZM151.622 200.016C152.208 201.479 153.009 202.848 153.997 204.076C154.931 203.142 152.312 199.752 150.769 196.321C150.049 194.577 149.032 192.97 147.765 191.571C149.084 196.301 150.323 196.666 151.622 200.016ZM158.341 196.26C159.003 197.745 159.777 199.176 160.655 200.544C161.63 199.569 159.031 196.24 157.448 192.749C156.736 191.004 155.726 189.397 154.464 187.998C155.946 193.195 157.245 193.073 158.341 196.26ZM176.327 183.735C177.492 186.241 178.793 188.68 180.224 191.043C181.199 190.049 178.621 186.841 176.997 183.248C176.319 181.494 175.328 179.878 174.074 178.478C174.483 180.358 175.248 182.142 176.327 183.735ZM185.624 182.7C186.317 184.173 187.096 185.603 187.959 186.983C188.913 186.05 186.335 182.558 184.792 179.168C184.064 177.481 183.055 175.93 181.808 174.58C183.351 180.02 184.528 179.472 185.624 182.7ZM193.156 179.208C193.844 180.69 194.624 182.127 195.49 183.512C196.464 182.538 193.866 179.229 192.283 175.717C191.571 173.972 190.561 172.365 189.299 170.967C190.821 176.123 192.1 176.082 193.156 179.208ZM53.2479 253.608C53.7722 253.434 54.2323 253.107 54.5689 252.67C54.9054 252.232 55.1029 251.703 55.1358 251.152C54.3821 247.603 52.8344 244.272 50.6089 241.408C49.999 240.953 49.2585 240.707 48.4977 240.707C47.7369 240.707 46.9965 240.953 46.3865 241.408C42.3265 243.255 42.6107 244.229 42.5092 244.635C42.2453 246.665 45.5136 253.324 46.5692 254.603C48.0714 256.247 50.4465 255.049 53.2479 253.608ZM47.9902 253.953C46.9346 253.121 46.2038 251.091 44.2753 247.721C43.5242 246.442 42.834 245.123 43.6257 243.945C44.6407 242.382 49.5939 240.393 50.954 243.62C53.2276 249.02 55.3997 250.401 54.1005 252.329C52.8013 254.258 49.127 254.826 47.9902 253.953ZM55.1764 242.849C58.2823 248.188 58.0387 251.862 63.4182 248.533C64.3317 248.147 65.8136 247.599 66.2399 246.503C66.4862 245.809 66.5595 245.065 66.4533 244.337C66.3472 243.608 66.0649 242.916 65.6309 242.321C63.6009 238.261 62.5656 231.988 57.1252 236.231C53.8569 238.525 53.4712 237.733 55.1764 242.849ZM58.2417 236.576L58.9928 236.292C60.5762 235.683 61.3679 236.292 62.2408 237.957C65.4076 244.899 68.9398 246.381 61.9363 248.391C59.1349 249.446 58.871 248.005 57.1049 244.717C54.5877 240.068 52.781 238.18 58.2417 236.576ZM70.0157 242.179C70.2358 242.653 70.5806 243.058 71.0133 243.352C71.4459 243.645 71.9502 243.815 72.472 243.844C73.5276 243.844 73.9336 243.438 76.532 242.037C78.7447 242.037 79.4958 238.931 77.8109 236.84C75.6388 232.78 74.8471 226.69 69.3052 230.75C68.4526 231.379 65.5497 232.252 66.585 234.81C67.5493 237.346 68.6959 239.809 70.0157 242.179ZM70.4217 230.567L71.1728 230.283C72.7562 229.695 73.5479 230.405 74.4208 231.948C77.4049 238.484 79.8409 239.499 76.7553 241.408H76.3696C70.8074 243.62 71.9239 243.438 68.006 236.17C66.4429 233.308 65.9963 231.928 70.4217 230.567ZM80.8559 230.689C81.5369 231.811 82.1275 232.986 82.622 234.201C83.2716 235.5 84.246 237.185 84.7738 237.997C85.7279 237.023 83.1092 233.653 81.5461 230.202C80.8302 228.46 79.8208 226.853 78.562 225.452C78.9973 227.324 79.775 229.1 80.8559 230.689ZM89.321 230.365C90.0076 231.851 90.7944 233.289 91.6758 234.668C92.6502 233.694 90.0315 230.344 88.4684 226.873C87.7581 225.129 86.7405 223.527 85.464 222.143C86.9459 227.563 88.1639 227.015 89.321 230.365ZM131.403 244.493C128.378 246.523 129.921 248.168 131.22 251.294C134.001 258.013 134.61 259.109 140.721 255.354C141.068 255.167 141.371 254.909 141.611 254.597C141.852 254.284 142.023 253.925 142.115 253.542C142.207 253.158 142.217 252.76 142.145 252.373C142.073 251.986 141.919 251.618 141.695 251.294C141.024 249.525 140.209 247.814 139.259 246.178C137.026 241.57 136.011 242.22 131.403 244.493ZM133.981 244.209C137.148 242.463 137.534 245.63 139.868 249.528C142.203 253.425 141.654 254.258 138.894 255.435C133.555 257.729 135.341 256.308 131.829 251.05C131.18 249.731 130.063 248.837 130.347 246.726C130.733 245.63 131.586 245.305 133.981 244.209ZM150.668 239.905C150.14 238.708 149.531 237.368 147.968 236.962C146.498 236.93 145.062 237.411 143.908 238.322C141.472 239.905 140.761 240.575 141.451 242.382C142.609 245.305 144.314 248.594 144.212 248.472C144.923 249.995 145.897 251.903 147.562 251.679C149.062 251.283 150.488 250.646 151.784 249.792C152.151 249.663 152.486 249.46 152.769 249.194C153.052 248.928 153.276 248.606 153.427 248.249C153.578 247.891 153.653 247.506 153.646 247.118C153.639 246.73 153.551 246.348 153.388 245.995C152.605 243.912 151.697 241.879 150.668 239.905ZM152.048 249.183C148.15 251.213 146.709 252.288 145.085 248.249C144.05 245.63 139.827 240.88 143.441 239.357C144.696 238.453 146.18 237.919 147.724 237.815C149.064 238.018 149.511 239.966 150.221 241.245C152.657 245.529 154.403 247.66 152.028 249.183H152.048ZM190.232 224.944C186.436 215.079 184.406 218.651 181.585 219.504C180.726 219.869 179.957 220.416 179.331 221.108C178.99 221.746 178.842 222.471 178.907 223.192C178.972 223.914 179.247 224.6 179.697 225.168C183.209 232.171 183.087 234.952 189.502 231.481C192.425 230.547 192.039 227.36 190.232 224.944ZM187.654 231.725L187.066 231.907C185.259 232.557 184.345 232.252 183.554 230.669C180.082 224.579 179.209 222.996 180.021 221.798C180.947 220.901 182.097 220.269 183.351 219.971L184.102 219.687C185.705 219.017 186.538 219.849 187.35 221.311C190.131 227.36 193.886 229.837 187.654 231.725ZM73.2434 287.631C73.0144 286.05 72.4541 284.535 71.5991 283.185C69.3458 278.658 69.0616 275.938 64.4941 278.151C60.5762 280.039 59.0943 280.851 61.9769 285.601C63.337 288.199 64.0069 291.589 66.1587 292.056C68.3105 292.523 73.081 289.255 73.2434 287.631ZM64.6362 288.971C61.8348 283.429 60.901 282.881 61.1852 281.358C61.4694 279.836 66.991 276.08 69.021 279.957C71.051 284.444 72.5329 286.169 72.6547 287.509C72.8577 289.539 67.194 292.706 64.6971 288.91L64.6362 288.971ZM72.8577 278.719C75.0907 282.475 76.126 287.671 79.8003 285.438C82.1145 283.956 86.3775 284.058 83.2716 278.333C82.4994 276.38 81.5834 274.487 80.5311 272.67C78.5011 269.767 75.2937 272.345 74.4411 272.67C71.4773 274.334 71.051 275.167 72.8577 278.719ZM76.1869 272.629C80.0033 271.167 79.4552 273.34 82.6626 278.719C83.6167 280.323 84.2866 281.419 83.7588 282.495C83.4303 283.101 82.876 283.553 82.216 283.753C76.8974 285.986 77.2425 285.012 74.9689 280.932C72.3908 276.283 70.8277 274.05 76.1869 272.67V272.629ZM92.975 266.965C90.945 263.372 86.6414 267.087 86.9865 266.844C86.4606 266.879 85.9534 267.052 85.5156 267.346C85.0779 267.64 84.7251 268.043 84.4926 268.516C84.2602 268.989 84.1563 269.515 84.1914 270.041C84.2266 270.567 84.3994 271.075 84.6926 271.513C85.4537 273.927 86.4818 276.249 87.7579 278.435C87.9263 278.798 88.1707 279.122 88.4746 279.383C88.7786 279.644 89.135 279.837 89.5198 279.948C89.9046 280.06 90.3089 280.088 90.7053 280.03C91.1018 279.972 91.4812 279.829 91.8179 279.612C92.7517 278.983 95.7358 277.806 95.8779 277.582C96.3894 276.901 96.6557 276.068 96.6336 275.216C96.6115 274.365 96.3022 273.546 95.7561 272.893C94.7005 271.147 94.2539 269.34 92.975 266.965ZM95.6749 276.73C94.8781 277.522 93.9253 278.141 92.8771 278.546C91.8288 278.952 90.7077 279.135 89.5849 279.084C88.5496 278.658 87.9 276.933 85.6264 272.751C84.7535 271.127 84.3069 270.376 84.6317 268.955C84.6317 268.244 86.6617 267.331 86.9865 267.331C91.8585 265.565 90.4375 266.438 94.396 273.055C95.2689 274.395 96.3651 275.43 95.6749 276.73ZM118.573 266.397C121.151 265.179 123.486 263.738 122.024 261.2C121.303 259.394 120.462 257.637 119.507 255.942C118.188 253.222 117.7 252.816 116.462 252.512C115.08 252.54 113.74 252.994 112.625 253.811C108.565 256.003 110.108 258.135 110.25 258.378C113.417 264.732 113.681 269.361 118.573 266.397ZM111.651 259.84C111.273 259.383 110.99 258.855 110.819 258.286C110.648 257.718 110.593 257.121 110.656 256.531C110.961 255.435 112.199 254.927 113.336 254.501C117.863 252.593 117.112 254.014 120.218 259.414C122.613 263.474 122.045 264.144 119.243 265.341C114.209 267.574 115.711 266.661 111.651 259.84ZM100.019 269.523C100.722 271.092 101.543 272.606 102.475 274.05C102.821 273.725 103.125 273.746 102.069 271.634C101.548 270.476 100.944 269.357 100.263 268.285C98.659 265.463 99.1259 264.773 96.2027 261.363C98.0703 266.641 98.7605 266.052 100.019 269.523ZM102.881 257.81C108.342 268.305 107.855 268.711 109.702 270.822C110.636 269.889 108.017 266.498 106.475 263.068C105.683 261.07 104.455 259.274 102.881 257.81ZM122.938 248.797C123.669 252.207 124.42 252.187 125.78 255.333C126.529 257.448 127.552 259.455 128.825 261.302C129.129 261.017 129.454 261.017 128.399 258.927C127.896 257.763 127.299 256.643 126.612 255.577C125.394 253.121 125.394 251.537 122.938 248.797ZM150.688 259.617C151.112 261.165 151.732 262.652 152.535 264.042C153.834 266.58 154.565 268.63 156.189 268.874C158.497 268.499 160.682 267.581 162.563 266.194C161.772 265.402 159.864 268.001 156.23 268.224C154.89 267.838 154.403 266.194 153.733 264.57C153.063 262.946 148.902 258.135 152.535 256.673C153.761 255.731 155.253 255.198 156.798 255.151C158.138 255.354 158.585 257.181 159.315 258.581C162.056 263.453 162.746 264.306 161.975 265.666L162.401 265.93C162.677 265.515 162.845 265.037 162.887 264.54C162.93 264.044 162.846 263.544 162.645 263.088C161.63 260.53 159.782 256.815 159.884 256.998C159.336 255.8 158.747 254.461 157.184 254.075C155.908 254.06 154.664 254.474 153.652 255.252C151.48 256.247 149.876 257.445 150.688 259.617ZM169.973 262.581L172.653 261.22C173.01 260.969 173.313 260.647 173.543 260.276C173.774 259.904 173.927 259.49 173.993 259.058C174.059 258.625 174.038 258.184 173.93 257.761C173.821 257.337 173.629 256.939 173.363 256.592C172.737 254.965 171.998 253.385 171.15 251.862C170.135 249.649 169.648 248.837 168.126 248.614C166.742 248.631 165.399 249.086 164.289 249.913L163.315 250.441C162.58 250.787 162.005 251.398 161.703 252.152C161.402 252.905 161.397 253.745 161.691 254.501C163.416 257.039 165.466 265.666 169.973 262.581ZM165.223 250.401C167.699 249.365 168.938 248.898 169.871 250.543C174.54 258.663 175.129 259.414 171.333 261.038C166.542 263.068 167.679 262.54 164.248 256.491C163.163 255.416 162.544 253.958 162.523 252.431C162.848 251.436 164.045 250.928 165.223 250.441V250.401ZM72.8577 304.297C70.8277 300.704 71.2743 299.811 68.9601 297.497C69.2411 298.997 69.821 300.426 70.6653 301.699C72.3502 304.622 72.878 307.362 74.8471 309.819L75.0095 309.636C74.5093 307.776 73.7868 305.984 72.8577 304.297ZM81.201 307.038C81.201 304.865 79.0086 301.841 78.0748 299.912C77.3114 297.877 76.317 295.936 75.111 294.127C76.0245 298.187 76.5523 297.517 78.0139 300.887C78.7602 303.086 79.8348 305.16 81.201 307.038ZM93.381 299.872C93.655 299.205 93.7468 298.478 93.6469 297.765C93.547 297.051 93.2591 296.377 92.8126 295.812C91.4322 293.173 91.3916 292.361 90.0721 289.925C88.0421 286.332 83.637 290.148 83.9821 289.925C82.9857 290.208 82.0956 290.78 81.4243 291.569C80.6123 292.807 81.4243 294.188 81.9927 295.406C82.7573 297.481 83.6315 299.513 84.6114 301.496C86.1542 304.602 89.0165 302.308 90.2142 301.78C89.7676 302.247 89.6255 302.206 91.1277 301.496C92.0305 301.204 92.8187 300.636 93.381 299.872ZM92.7517 299.669C92.4699 300.177 92.0272 300.577 91.4931 300.805C88.6917 301.435 86.9053 303.201 85.4031 300.359C80.6123 291.975 81.0792 292.056 84.2866 290.026C89.1586 288.199 87.7782 289.174 91.6961 295.73C93.6855 298.816 92.7314 299.283 92.7923 299.669H92.7517ZM96.3448 295.751C96.5256 296.103 96.776 296.415 97.0808 296.667C97.3857 296.92 97.7386 297.107 98.1182 297.219C98.4979 297.331 98.8963 297.365 99.2893 297.319C99.6824 297.272 100.062 297.146 100.405 296.948L102.272 296.116C104.505 295.649 106.19 293.721 104.932 291.61C103.923 289.027 102.778 286.499 101.501 284.038C99.7755 280.79 96.3448 283.388 95.2689 283.693C94.4092 284.065 93.6404 284.619 93.0156 285.317C92.6742 285.955 92.5268 286.68 92.5917 287.401C92.6566 288.122 92.931 288.809 93.381 289.377C94.5247 291.425 95.5153 293.556 96.3448 295.751ZM93.8479 286.027C94.7794 285.123 95.936 284.485 97.1974 284.18L97.9485 283.896C99.5319 283.226 100.364 284.099 101.176 285.54C103.714 291.122 105.236 291.63 104.505 293.802C103.983 294.75 103.131 295.472 102.11 295.832C97.3801 297.354 98.6184 296.847 94.6802 290.107C92.7111 287.001 93.8479 286.23 93.8479 286.027ZM116.3 284.2C114.27 280.14 113.336 274.05 107.794 278.11C106.779 278.861 105.764 279.024 105.236 279.937C104.384 281.297 105.236 282.434 105.886 284.545C108.545 289.255 108.484 291.366 111.001 291.488C112.219 291.488 116.848 289.701 117.091 287.103C117.173 286.591 117.145 286.067 117.008 285.566C116.872 285.066 116.63 284.6 116.3 284.2ZM116.503 288.077C116.178 288.828 110.717 292.137 109.093 288.849C108.992 288.646 105.886 283.084 105.439 281.926C105.291 281.492 105.27 281.025 105.378 280.579C105.486 280.134 105.718 279.728 106.048 279.409C107.185 278.728 108.398 278.183 109.662 277.785C112.565 276.709 112.788 279.957 115.386 284.403C116.523 286.23 117.091 287.001 116.503 288.037V288.077ZM139.462 265.443C139.215 265.019 138.877 264.654 138.473 264.375C138.069 264.096 137.608 263.91 137.124 263.828C136.64 263.747 136.144 263.773 135.671 263.905C135.198 264.036 134.76 264.27 134.387 264.59C133.116 265.069 131.956 265.801 130.977 266.742C130.641 267.383 130.498 268.109 130.566 268.829C130.635 269.55 130.911 270.236 131.362 270.802C133.555 275.004 134.022 278.354 136.985 278.557C137.737 278.557 137.94 278.354 140.436 277.115C145.045 275.471 143.258 273.218 139.462 265.443ZM140.173 276.811C137.716 277.765 136.823 279.633 134.712 275.106C133.25 272 129.738 267.737 133.007 266.62C134.307 265.65 135.872 265.097 137.493 265.037C138.67 265.199 138.467 265.666 142.629 273.319C143.197 275.877 141.127 276.08 140.173 276.811ZM123.324 285.804C123.527 285.601 123.648 285.499 123.628 285.276C123.486 284.017 120.482 279.389 119.568 276.933C119.05 275.564 118.325 274.284 117.416 273.137C117.719 274.755 118.332 276.299 119.223 277.684C120.583 280.14 121.923 284.403 123.324 285.804ZM130.408 282.353C130.956 281.805 130.591 281.663 130.205 280.688C129.412 278.93 128.524 277.215 127.546 275.552C126.75 273.512 125.722 271.571 124.481 269.767C125.354 273.644 126.003 273.319 127.363 276.425C128.134 278.517 129.156 280.508 130.408 282.353ZM149.673 272.731C150.323 272.101 149.673 271.188 149.45 270.944C148.394 268.386 147.744 267.838 146.79 265.849C145.957 263.807 144.93 261.849 143.725 260.002C144.618 264.062 145.166 263.413 146.628 266.762C147.377 268.877 148.4 270.883 149.673 272.731ZM156.758 281.602C156.149 280.485 155.722 278.455 153.733 277.948C151.703 277.948 147.643 280.12 147.237 281.723C146.669 283.753 150.586 292.462 152.779 292.767C154.809 292.767 159.052 290.737 159.295 288.93C159.539 287.123 157.59 283.124 156.758 281.602ZM152.576 292.056C151.601 291.731 151.135 290.493 150.282 288.483C150.038 287.915 147.196 283.733 147.765 281.825C148.171 280.465 151.419 279.186 153.266 279.064C154.281 279.227 154.789 280.404 155.296 281.439C156.23 283.774 158.95 287.083 158.666 288.889C158.341 291.061 153.571 292.32 152.576 292.056ZM170.704 281.419C169.689 278.861 167.862 275.146 167.943 275.329C167.761 274.66 167.421 274.046 166.951 273.537C166.481 273.028 165.895 272.64 165.243 272.406C163.971 272.396 162.733 272.818 161.731 273.603C160.736 274.212 159.173 274.821 158.706 276.1C158.468 276.714 158.468 277.395 158.706 278.009C159.541 280.122 160.49 282.189 161.548 284.2C162.117 285.459 162.848 287.001 164.289 287.225C166.157 287.225 170.217 285.479 170.866 283.449C170.976 283.117 171.018 282.766 170.99 282.418C170.962 282.069 170.865 281.729 170.704 281.419ZM164.431 286.372C163.396 286.088 159.011 278.374 159.315 276.445C159.62 274.517 163.051 273.421 164.979 273.299C166.075 273.461 170.805 281.926 170.379 283.449C169.953 284.971 166.177 286.23 164.431 286.372ZM180.448 270.132C179.23 267.432 178.763 266.803 177.423 266.478C175.753 266.589 174.158 267.213 172.856 268.265C171.049 269.178 170.379 270.477 170.988 272.101C171.791 274.212 172.706 276.279 173.728 278.293C174.601 280.221 175.352 281.135 176.428 281.277C177.931 281.48 182.721 279.531 183.168 277.42C183.311 276.807 183.247 276.165 182.985 275.593C180.671 269.503 180.021 270.132 180.448 270.132ZM176.611 280.505C175.312 280.14 174.825 278.475 174.114 276.851C173.607 275.654 170.927 272.426 171.577 270.396C172.084 268.833 175.149 267.554 177.179 267.432C178.499 267.635 178.966 269.462 179.676 270.863C181.321 273.725 182.782 275.816 182.66 277.217C182.417 279.064 178.154 280.424 176.611 280.505ZM183.209 263.535C183.96 267.128 186.091 269.097 186.457 271.066C185.34 271.472 183.574 273.096 184.244 273.664C185.311 274.004 186.395 274.288 187.492 274.517C188.344 274.639 188.405 274.517 189.116 275.979C189.583 275.512 189.603 275.39 189.339 274.923C193.846 274.923 195.592 273.279 199.063 269.787C199.681 269.227 200.252 268.616 200.768 267.96C202.331 269.767 210.918 267.006 208.523 263.047C210.193 262.098 212.049 261.523 213.963 261.363C214.27 262.032 214.682 262.648 215.181 263.19C215.648 262.723 215.506 262.459 214.856 261.16C217.675 260.774 220.529 260.713 223.362 260.977C228.254 262.215 232.294 258.48 229.736 255.963C224.012 251.903 211.466 253.446 204.848 255.699C204.257 254.978 203.466 254.449 202.575 254.176C201.301 254.16 200.061 254.583 199.063 255.374L198.048 255.942C197.698 256.062 197.378 256.255 197.109 256.51C196.841 256.764 196.63 257.073 196.492 257.415C196.353 257.758 196.29 258.127 196.306 258.496C196.322 258.865 196.418 259.227 196.586 259.556C197.479 260.936 196.769 260.551 196.221 261.586C191.308 267.493 195.389 266.641 190.131 260.145C190.801 263.311 191.613 263.575 192.689 266.113C191.305 268.17 189.351 269.779 187.066 270.741C184.853 265.93 185.198 265.524 183.209 263.535ZM207.569 262.926C207.818 263.286 207.994 263.692 208.085 264.121C208.175 264.55 208.179 264.992 208.096 265.423C206.5 266.871 204.477 267.761 202.331 267.96C201.946 267.773 201.585 267.542 201.255 267.27C202.995 265.325 205.183 263.834 207.629 262.926H207.569ZM203.509 254.927C205.315 256.288 202.757 254.927 197.419 259.637C195.713 256.348 202.494 254.298 203.549 254.927H203.509ZM87.6564 315.726C87.2098 314.894 86.682 312.6 84.6317 312.072C82.9615 312.182 81.3662 312.806 80.0642 313.858C77.1613 314.873 77.7094 318.324 79.4755 320.821C81.0589 324.475 82.0536 326.688 83.6776 326.911C86.3978 326.911 91.0871 324.617 89.9706 321.146C89.4026 319.259 88.6264 317.441 87.6564 315.726ZM83.5964 326.262C82.2769 325.896 81.7694 324.232 81.0995 322.608C80.9574 322.283 79.8206 320.436 79.9424 320.578C78.8462 318.162 77.4049 315.645 79.8409 314.67C81.0957 313.779 82.5693 313.246 84.1039 313.128C85.1189 313.29 85.6264 314.467 86.1339 315.503C87.6361 319.218 90.742 321.796 89.0165 324.029C87.5055 325.299 85.643 326.078 83.6776 326.262H83.5964ZM101.643 315.056C98.0094 307.728 97.9485 306.936 96.1621 306.53C94.817 306.492 93.4992 306.915 92.4269 307.728C90.539 308.783 88.7932 309.9 89.727 311.788C90.8841 314.711 92.5893 318.02 92.4878 317.878C93.178 319.36 94.1727 321.349 95.8373 321.085C98.3748 320.74 102.821 318.71 101.643 315.056ZM95.0659 320.131C94.2945 319.847 93.8276 318.994 93.2389 317.553C92.163 314.833 89.1789 311.585 90.5593 309.575C92.0312 308.208 93.9174 307.372 95.9185 307.2C97.2786 307.403 97.7252 309.392 98.4357 310.631C99.1462 311.869 100.202 313.737 101.095 315.503C102.8 319.035 95.7561 320.395 95.0659 320.131ZM105.419 301.354C104.566 301.902 102.942 302.125 102.009 303.505C101.68 304.149 101.542 304.872 101.61 305.592C101.678 306.311 101.95 306.995 102.394 307.565C104.688 311.037 105.541 316.822 109.377 314.853C112.362 313.29 114.371 312.965 114.006 309.94C113.905 309.031 113.569 308.164 113.031 307.423C111.651 305.535 110.616 298.065 105.419 301.354ZM109.317 314.041C107.063 314.508 106.272 313.655 104.505 310.367C102.475 306.53 101.318 305.109 102.272 303.952C103.663 302.615 105.467 301.792 107.388 301.617C109.296 301.617 109.256 304.216 112.077 308.174C115.346 312.782 109.621 314 109.317 314.041ZM135.463 288.504C135.083 288.099 134.586 287.822 134.042 287.712C132.35 287.753 130.718 288.344 129.393 289.397C126.49 290.412 127.018 293.863 128.784 296.339C130.368 299.993 131.362 302.206 133.007 302.429C135.438 302.215 137.7 301.091 139.34 299.283C139.513 298.872 139.602 298.43 139.602 297.984C139.602 297.538 139.513 297.096 139.34 296.685C138.398 293.805 137.095 291.056 135.463 288.504ZM133.088 301.881C131.748 301.516 131.261 299.851 130.591 298.227C130.449 297.903 127.81 293.822 127.972 291.792C128.48 290.27 131.504 288.971 133.595 288.808C134.61 288.971 135.118 290.148 135.625 291.183C136.133 292.219 137.168 293.883 138.792 297.111C139.049 297.604 139.128 298.17 139.015 298.715C138.488 300.623 134.773 301.76 133.088 301.881ZM118.005 304.297C115.711 299.973 116.259 299.648 114.107 297.497C114.385 298.998 114.965 300.428 115.813 301.699C117.518 304.622 118.025 307.362 119.994 309.819C120.624 309.271 118.127 304.5 118.005 304.297ZM126.003 302.856C125.362 301.335 124.637 299.851 123.831 298.41C123.258 296.688 122.3 295.119 121.03 293.822C121.72 297.07 122.552 297.212 123.851 300.257C128.013 310.083 127.424 305.393 126.003 302.856ZM144.354 291.143C142.06 286.819 142.609 286.494 140.457 284.342C140.753 285.839 141.332 287.265 142.162 288.544C143.827 291.467 144.395 294.228 146.222 296.664C146.669 296.38 146.953 296.015 144.354 291.143ZM168.836 308.925C169.777 308.525 170.572 307.845 171.113 306.977C171.653 306.108 171.913 305.095 171.856 304.074C171.8 303.053 171.43 302.074 170.797 301.27C170.164 300.467 169.299 299.879 168.319 299.585C167.34 299.291 166.294 299.306 165.323 299.628C164.352 299.951 163.505 300.564 162.896 301.386C162.286 302.207 161.945 303.196 161.918 304.218C161.892 305.241 162.181 306.246 162.746 307.098C163.47 307.967 164.434 308.603 165.517 308.927C166.599 309.252 167.754 309.252 168.836 308.925ZM169.709 307.504C169.234 307.843 168.693 308.08 168.122 308.2C167.551 308.32 166.961 308.321 166.39 308.203C165.818 308.085 165.277 307.85 164.8 307.513C164.323 307.177 163.921 306.745 163.619 306.246C163.163 305.5 162.937 304.636 162.97 303.762C163.002 302.888 163.292 302.043 163.802 301.333C167.151 296.725 175.007 303.546 169.709 307.504ZM193.501 317.391C193.156 317.045 192.303 316.436 191.816 316.538C191.11 316.806 190.43 317.139 189.786 317.533C175.17 324.475 170.683 326.911 171.13 326.668C166.136 329.469 164.248 329.428 164.005 330.728C164.005 331.743 164.228 331.438 164.715 333.915C164.923 335.885 165.324 337.829 165.913 339.721H166.461C166.847 339.599 199.246 323.481 199.469 323.359C199.692 323.237 200.139 323.095 200.24 322.811C200.443 322.141 197.622 320.923 193.501 317.391ZM166.258 339.193C165.832 337.305 165.548 335.376 165.304 333.428C165.304 333.184 164.837 330.586 164.939 330.565C168.227 329.266 185.99 320.09 189.502 318.385C190.055 318.185 190.597 317.954 191.126 317.695C192.262 317.086 192.871 317.959 193.724 318.629C196.972 321.187 198.088 322.039 199.327 322.831C165.994 339.213 175.413 334.706 166.258 339.193ZM194.374 77.3431C194.84 77.3431 194.577 77.3431 195.449 77.1604C194.327 76.887 193.314 76.278 192.547 75.4146V74.9883L192.404 75.4755C192.12 76.5108 193.379 77.2619 194.374 77.3431ZM198.941 79.1701C198.735 79.3093 198.577 79.5091 198.49 79.7419C198.403 79.9747 198.39 80.2289 198.454 80.4693C198.88 81.2813 199.936 80.2866 199.611 79.2513C199.834 79.238 200.052 79.1789 200.251 79.0776C200.45 78.9763 200.626 78.835 200.768 78.6626L201.113 78.1145L200.504 78.3175C200.159 78.3175 198.109 78.5611 197.926 78.3175L198.149 78.6829C198.413 79.0077 198.677 79.0483 198.941 79.1701Z" fill="#303030"/>
<path d="M192.851 78.8652C193.48 78.8652 194.069 77.4442 193.379 77.1194C192.283 76.6119 191.572 78.8652 192.851 78.8652ZM190.923 84.8943C191.259 85.5142 191.387 86.2259 191.288 86.9243C191.477 86.7928 191.637 86.6249 191.76 86.4304C191.883 86.2359 191.966 86.0188 192.004 85.7918C192.042 85.5648 192.034 85.3326 191.981 85.1087C191.927 84.8848 191.83 84.6739 191.694 84.4883C191.374 84.1285 190.974 83.8492 190.526 83.6729C190.078 83.4965 189.595 83.4281 189.116 83.4733C189.854 83.7428 190.487 84.2405 190.923 84.8943ZM60.5153 129.92C61.6865 130.622 63.0555 130.921 64.4129 130.772H66.4429C66.8069 130.711 67.1803 130.736 67.5329 130.845C67.8856 130.954 68.2076 131.145 68.4729 131.402C67.7015 131.747 66.8489 132.011 66.8489 133.046C68.9298 138.497 71.498 143.748 74.5223 148.738C78.5316 156.177 84.3114 162.515 91.351 167.19C96.1269 169.805 101.144 171.954 106.332 173.605C105.622 168.263 104.619 162.963 103.328 157.731C103.044 156.31 98.1718 140.07 97.8064 140.07C96.2444 140.587 94.5573 140.587 92.9953 140.07C89.9699 138.974 87.1342 137.413 84.5911 135.441C82.9062 134.264 81.1807 133.229 79.4552 132.031C78.8868 131.645 76.8568 132.173 77.2425 130.894C77.7094 124.459 76.0651 123.444 70.9292 124.804C68.5947 125.372 59.0943 126.996 59.7642 129.27C59.9436 129.557 60.2054 129.784 60.5153 129.92ZM72.0254 125.169C73.4261 125.007 75.1313 124.784 76.0854 126.144C76.7147 127.118 76.4508 127.971 76.4508 129.067V131.28C74.0647 131.125 71.671 131.125 69.2849 131.28C69.0168 130.856 68.6276 130.524 68.1678 130.325C67.708 130.125 67.199 130.069 66.7068 130.163C63.4182 130.163 61.4491 130.163 61.0025 129.27C60.5559 128.377 62.0378 127.768 62.7077 127.524C65.7137 126.395 68.8405 125.619 72.0254 125.21V125.169ZM276.081 284.626L273.422 282.413C272.558 281.765 271.496 281.435 270.417 281.479C269.593 281.577 268.815 281.91 268.176 282.439C267.537 282.969 267.065 283.671 266.816 284.463C266.567 285.254 266.552 286.101 266.774 286.901C266.995 287.7 267.442 288.419 268.063 288.97L270.702 291.183C271.075 291.531 271.517 291.795 272 291.96C272.483 292.124 272.995 292.185 273.503 292.137C274.376 292.134 275.227 291.86 275.938 291.351C276.648 290.843 277.182 290.125 277.465 289.299C277.749 288.473 277.768 287.579 277.52 286.741C277.272 285.904 276.769 285.164 276.081 284.626ZM275.777 289.762C275.286 290.345 274.587 290.715 273.829 290.79C273.071 290.866 272.313 290.643 271.717 290.168L269.057 287.955C268.454 287.465 268.071 286.756 267.991 285.983C267.911 285.21 268.141 284.437 268.631 283.834C269.121 283.231 269.83 282.848 270.603 282.768C271.376 282.688 272.149 282.918 272.752 283.408L275.391 285.621C275.961 286.139 276.315 286.852 276.383 287.62C276.451 288.387 276.227 289.152 275.756 289.762H275.777ZM286.921 260.936C286.018 260.272 284.893 259.985 283.783 260.135C282.672 260.285 281.663 260.86 280.969 261.739C280.274 262.618 279.947 263.732 280.058 264.847C280.169 265.962 280.708 266.991 281.562 267.716L284.445 269.929C289.032 273.339 293.904 266.66 289.804 263.169L286.921 260.936ZM289.479 268.284C288.976 268.894 288.252 269.281 287.465 269.361C286.679 269.44 285.893 269.207 285.277 268.711L282.374 266.498C281.84 265.99 281.52 265.297 281.478 264.561C281.436 263.825 281.676 263.101 282.149 262.535C282.621 261.969 283.292 261.605 284.023 261.515C284.755 261.425 285.494 261.617 286.089 262.052L288.972 264.285C289.558 264.756 289.938 265.437 290.033 266.182C290.127 266.928 289.929 267.682 289.479 268.284Z" fill="#303030"/>
<path d="M388.136 234.851C387.779 234.243 387.247 233.757 386.61 233.456C385.973 233.154 385.26 233.052 384.563 233.161C383.867 233.271 383.219 233.587 382.705 234.07C382.191 234.552 381.834 235.178 381.681 235.866H378.474C363.535 236.616 349.495 243.224 339.396 254.258C339.216 254.19 339.052 254.087 338.912 253.954C338.773 253.822 338.661 253.663 338.584 253.486C338.02 251.964 337.566 250.404 337.224 248.817C336.953 248.299 336.755 247.746 336.635 247.173C336.733 245.46 337.026 243.765 337.508 242.118C338.94 234.628 339.282 226.97 338.523 219.382C339.717 218.305 341.091 217.446 342.583 216.845C342.97 217.29 343.457 217.638 344.003 217.859C344.55 218.08 345.142 218.168 345.729 218.117C346.317 218.065 346.884 217.876 347.384 217.563C347.884 217.25 348.303 216.823 348.606 216.318C348.91 215.812 349.089 215.241 349.13 214.653C349.17 214.065 349.071 213.475 348.84 212.932C348.609 212.39 348.252 211.909 347.8 211.531C347.348 211.153 346.812 210.887 346.237 210.755C345.754 210.63 345.249 210.606 344.756 210.686C344.263 210.765 343.792 210.946 343.372 211.217C342.952 211.488 342.594 211.843 342.318 212.26C342.042 212.676 341.856 213.145 341.771 213.638C341.751 213.969 341.751 214.301 341.771 214.632C340.416 215.239 339.152 216.032 338.016 216.987C334.869 196.687 322.364 176.387 304.338 167.435L294.35 162.867C293.874 162.78 293.393 162.726 292.909 162.705C295.513 164.653 297.591 167.219 298.955 170.171C300.32 173.123 300.928 176.369 300.725 179.615C300.681 180.306 300.475 180.978 300.122 181.574C299.769 182.17 299.28 182.675 298.695 183.045C299.663 184.844 300.348 186.782 300.725 188.79C302.442 195.734 304.73 202.524 307.566 209.09C306.997 207.73 303.973 206.878 302.775 206.228C289.884 198.961 275.228 196.403 273.299 196.728C272.142 194.698 269.523 189.501 269.605 189.704C268.671 187.552 267.433 185.786 265.078 186.03C261.383 186.03 256.43 181.97 255.577 176.265C255.095 172.225 255.511 168.129 256.795 164.268C250.864 168.134 245.976 173.401 242.563 179.604C239.15 185.807 237.317 192.754 237.226 199.834C235.46 198.94 232.151 201.153 231.583 200.909C231.38 200.788 208.745 154.991 207.933 152.9C206.736 150.322 205.091 146.81 201.052 147.46C199.722 147.707 198.454 148.21 197.316 148.941C197.316 148.941 139.888 177.077 135.422 179.391C140.862 165.181 142.445 148.82 138.122 129.514C140.836 139.505 141.879 149.877 141.207 160.208C144.027 156.556 146.488 152.64 148.556 148.515C150.116 145.04 151.294 141.405 152.068 137.675C159.355 137.188 172.936 126.672 178.336 120.948C183.43 125.007 188.942 128.512 194.779 131.402C209.131 138.791 224.823 141.024 234.973 139.38C236.658 139.096 238.789 139.502 239.987 137.35C240.076 137.749 240.316 138.098 240.657 138.325C242.281 139.279 242.991 138.67 245.468 138.893C246.036 140.7 247.498 139.806 247.051 138.893C247.518 138.893 247.762 139.137 248.107 138.71C248.345 138.233 248.41 137.687 248.29 137.167C249.548 136.558 249.792 135.137 248.026 134.468C248.152 134.127 248.184 133.76 248.12 133.403C248.056 133.046 247.897 132.712 247.66 132.438C247.345 132.183 246.997 131.971 246.625 131.808C242.159 89.6248 244.595 107.245 242.91 90.315C250.198 88.4271 252.025 79.3124 252.37 72.7961C253.162 67.6636 253.162 62.4398 252.37 57.3072C251.813 53.0772 250.3 49.0298 247.945 45.4723C247.108 44.1584 245.923 43.1023 244.521 42.4214C243.12 41.7405 241.558 41.4615 240.007 41.6153C239.662 41.6153 239.662 41.8183 239.358 41.7574C234.734 41.8174 230.182 40.6023 226.203 38.2455C207.527 27.9331 202.716 16.7072 191.409 11.8555C189.291 10.8052 186.983 10.1906 184.623 10.0479C182.262 9.90515 179.897 10.2373 177.668 11.0247C175.438 11.812 173.389 13.0386 171.642 14.6319C169.895 16.2251 168.485 18.1526 167.496 20.3003C160.695 34.2058 168.084 49.9992 179.351 59.0733C181.137 60.474 179.838 61.1033 180.203 62.8694C179.049 63.1585 178.004 63.7796 177.199 64.6558C176.891 65.1302 176.746 65.6922 176.786 66.2564C176.827 66.8206 177.05 67.3563 177.422 67.782C176.934 67.9807 176.519 68.3252 176.235 68.7686C175.95 69.2119 175.809 69.7325 175.831 70.259C175.853 70.7855 176.037 71.2923 176.359 71.7101C176.68 72.1279 177.122 72.4363 177.625 72.5931C177.042 73.1923 176.7 73.9859 176.667 74.8216C176.633 75.6572 176.909 76.4758 177.443 77.12C177.747 77.5463 178.539 77.5463 178.904 77.9726C179.27 78.3989 178.722 79.4139 178.153 79.7996C177.403 80.2932 176.548 80.6059 175.656 80.7131C174.459 80.7131 173.931 79.6778 173.444 78.6831C170.683 72.4713 167.354 58.1192 154.788 49.6541C143.862 42.7906 131.146 39.3218 118.248 39.6868C111.63 39.6868 105.499 39.3214 99.9778 43.4829C98.333 42.1452 96.6113 40.9048 94.8216 39.768C94.1887 39.4538 93.4975 39.2741 92.7916 39.2402C92.0405 39.2402 91.4315 39.8695 92.142 40.6003C91.7035 40.4702 91.2428 40.4319 90.7887 40.4878C90.3347 40.5437 89.897 40.6926 89.503 40.9251C89.1173 41.4123 89.2188 42.1431 90.3354 42.61C89.5639 42.4273 88.9955 43.422 89.4624 44.234C90.1368 45.0376 91.0338 45.6238 92.0406 45.9189C90.721 45.8174 90.5586 48.1113 92.9947 48.3752C94.4816 48.3936 95.9678 48.2985 97.4403 48.091C98.1065 50.7646 99.6593 53.1333 101.845 54.8103C108.63 59.2901 116.353 62.1515 124.419 63.1739C127.789 63.6611 131.423 63.1739 134.711 63.8844C135.3 70.3118 137.507 76.4854 141.126 81.8296C137.066 82.9867 129.047 89.1782 125.86 91.7766C124.196 93.1367 122.369 95.0449 122.917 97.1358C121.394 97.4541 119.91 97.9374 118.491 98.5771C116.478 99.6553 114.545 100.876 112.706 102.231C107.374 106.108 103.284 111.452 100.934 117.611C98.5845 123.771 98.0759 130.48 99.4703 136.924C105.215 163.314 112.584 168.937 105.56 194.535C94.3547 199.976 26.3903 233.45 24.0761 234.526C22.3535 235.254 20.7078 236.151 19.1635 237.206C15.8343 239.825 17.6613 243.438 19.1635 246.341C19.1635 246.341 68.0053 344.897 71.9435 353.159C72.4286 354.489 73.4216 355.571 74.7044 356.169C75.9872 356.767 77.4548 356.83 78.7846 356.347C78.8295 358.379 78.7549 360.413 78.5613 362.437C78.5613 376.931 78.1147 375.063 78.1147 385.051C77.8914 388.887 78.2771 387.081 77.2824 388.563C77.2824 389.517 77.8508 389.578 78.1756 390.43L80.9364 395.85C81.2003 395.85 265.484 304.967 273.441 300.907C284.444 311.93 295.548 316.619 309.454 319.604C303.627 326.363 298.289 329.916 300.034 332.981C301.016 334.301 302.409 335.258 303.993 335.701C310.489 338.564 325.531 344.329 326.648 344.37C326.754 344.325 326.848 344.255 326.922 344.167C326.996 344.079 327.048 343.974 327.074 343.862C327.196 343.273 326.546 342.299 325.166 340.898C323.684 339.031 322.161 337.041 320.456 335.133C321.474 334.387 322.578 333.767 323.745 333.286C325.105 332.88 325.653 332.778 325.897 332.291C326.14 331.804 325.105 330.423 324.394 330.017C323.678 329.381 323.001 328.703 322.364 327.987C322.121 327.744 322.364 327.521 322.811 326.952C327.338 322.446 328.901 323.44 331.053 323.927C332.697 324.293 337.671 325.186 338.219 325.247C339.207 325.618 340.265 325.767 341.318 325.683C342.371 325.599 343.392 325.283 344.309 324.76C346.704 322.933 347.333 320.7 348.369 320.375C349.404 320.05 354.357 321.491 354.317 322.405C354.154 325.125 344.776 328.881 359.574 329.449C359.046 330.951 358.539 333.042 357.93 334.707C357.544 335.945 356.347 337.61 357.077 338.665C357.131 338.743 357.205 338.804 357.29 338.843C357.376 338.883 357.471 338.898 357.565 338.889C359.249 338.889 364.04 332.981 364.061 332.92C366.827 330.502 368.925 327.412 370.151 323.948C370.82 320.578 368.486 318.325 365.847 316.437C362.464 314.078 358.869 312.039 355.108 310.347C368.587 291.224 362.599 267.189 341.487 254.948C350.649 245.215 363.052 239.165 376.362 237.937C378.144 237.754 379.94 237.754 381.722 237.937C382.032 238.608 382.541 239.167 383.18 239.54C383.818 239.912 384.556 240.08 385.293 240.02C386.03 239.96 386.73 239.676 387.301 239.206C387.871 238.735 388.283 238.101 388.481 237.389C388.628 236.968 388.673 236.519 388.613 236.078C388.553 235.637 388.39 235.217 388.136 234.851ZM334.463 251.72C333.671 251.375 332.839 251.05 332.047 250.746C336.107 240.413 335.336 227.523 334.077 224.051C334.077 223.402 334.179 223.219 334.646 222.996L337.204 220.621C337.966 231.067 337.04 241.568 334.463 251.72ZM323.867 240.555C323.907 240.845 323.907 241.139 323.867 241.428C324.145 243.798 323.795 246.199 322.852 248.391C322.412 248.282 321.964 248.214 321.512 248.188C322.121 245.593 322.908 243.043 323.867 240.555ZM321.106 241.773C320.395 243.986 319.949 246.199 319.401 248.269C318.819 248.27 318.245 248.145 317.716 247.904C317.127 247.133 317.289 244.656 317.168 243.702C315.97 235.886 313.412 227.32 312.072 221.9C316.031 225.473 319.323 229.72 321.796 234.445C322.77 237.348 323.359 235.216 321.106 241.773ZM324.476 246.564C325.063 244.91 325.345 243.163 325.308 241.408C325.43 239.378 324.476 238.647 325.308 237.348C326.34 234.789 327.64 232.346 329.185 230.06C330.08 234.165 330.34 238.382 329.957 242.565C329.703 244.961 329.248 247.331 328.596 249.65C328.596 249.853 327.561 249.325 323.988 248.757C323.298 248.696 323.603 249.02 324.476 246.564ZM330.18 229.593C330.09 229.378 330.044 229.147 330.044 228.913C330.044 228.68 330.09 228.449 330.18 228.233C330.476 227.758 330.838 227.327 331.256 226.954C331.847 226.179 332.484 225.44 333.164 224.742C334.953 233.401 334.421 242.379 331.621 250.766L329.124 249.914C331.38 243.374 331.746 236.331 330.18 229.593ZM330.647 198.595C332.513 202.525 334.061 206.598 335.275 210.775C335.93 213.201 336.412 215.67 336.716 218.164C335.578 219.002 334.499 219.917 333.489 220.905C329.165 203.975 317.898 185.908 307.647 174.215C304.765 170.976 301.5 168.099 297.923 165.648C312.754 171.878 324.518 183.722 330.647 198.595ZM303.161 194.535C302.978 194.271 299.73 183.451 299.669 183.269C302.815 181.868 301.252 175.047 300.765 172.692C300.183 169.878 298.769 167.303 296.705 165.303C298.451 166.582 299.567 167.739 300.582 168.47C306.078 173.333 310.904 178.903 314.935 185.035C322.225 195.436 327.823 206.926 331.52 219.078C332.453 221.859 332.616 221.818 331.52 222.63C330.587 223.584 329.706 224.587 328.881 225.635C326.252 217.378 321.548 209.934 315.219 204.015C312.432 201.401 309.43 199.024 306.246 196.91C305.497 196.257 304.711 195.647 303.891 195.083H303.749C303.507 194.967 303.303 194.784 303.161 194.556V194.535ZM303.83 195.895C321.796 208.075 325.267 220.966 327.561 225.472C328.799 227.949 327.399 226.548 323.501 234.77C321.288 228.863 316.335 224.356 311.687 220.702C301.354 188.445 305.779 202.107 303.83 195.916V195.895ZM309.92 247.457C303.079 247.762 300.582 249.487 299.324 248.269C292.808 242.179 286.88 236.333 283.551 228.111C282.272 224.924 282.13 220.215 285.581 217.758L285.337 217.373C283.975 218.314 282.923 219.638 282.312 221.177C281.702 222.716 281.56 224.401 281.906 226.021C282.607 229.322 283.99 232.44 285.966 235.176C289.24 240.318 293.513 244.75 298.532 248.208C299.405 249.061 299.243 248.919 299.446 249.061C296.604 249.751 296.746 249.751 296.238 249.629C295.731 249.508 291.143 245.793 291.387 245.996C285.186 241.021 279.295 235.672 273.746 229.979C266.357 222.387 259.191 212.886 260.287 201.803C260.632 197.247 262.4 192.915 265.342 189.42C265.911 188.46 266.752 187.69 267.757 187.207C275.735 207.06 295.386 230.081 309.819 247.478L309.92 247.457ZM255.557 166.46C252.857 175.575 256.227 182.842 261.85 185.827C263.387 186.571 265.076 186.946 266.783 186.923C265.139 186.923 254.095 200.077 261.099 214.977C267.067 228.822 281.399 238.952 292.402 247.863C293.741 248.716 294.026 249.163 295.447 250.035C292.095 251.018 288.867 252.38 285.824 254.095C268.935 243.336 251.944 225.006 246.625 205.842C244.896 199.02 244.803 191.885 246.356 185.02C247.908 178.155 251.061 171.753 255.557 166.339V166.46ZM294.35 254.928C295.187 254.986 295.973 255.347 296.563 255.943L298.776 258.825C299.048 259.18 299.247 259.585 299.362 260.017C299.477 260.449 299.505 260.9 299.446 261.343C299.317 261.872 299.045 262.355 298.658 262.738C298.272 263.122 297.786 263.39 297.256 263.514C296.726 263.639 296.172 263.613 295.655 263.441C295.139 263.269 294.68 262.957 294.33 262.54L292.117 259.658C291.765 259.236 291.541 258.722 291.471 258.176C291.401 257.631 291.489 257.077 291.723 256.58C291.958 256.082 292.33 255.663 292.796 255.37C293.261 255.077 293.801 254.924 294.35 254.928ZM239.54 189.968C241.103 181.848 245.833 174.032 254.562 166.704C252.803 168.646 251.283 170.793 250.035 173.098C236.516 196.89 246.99 220.905 266.702 239.906C272.272 245.509 278.551 250.361 285.378 254.339C282.956 255.761 280.618 257.319 278.374 259.008C272.866 255.485 267.785 251.336 263.23 246.645C253.525 237.141 246.057 225.595 241.367 212.846C238.555 205.53 237.92 197.556 239.54 189.887V189.968ZM198.94 149.693C206.756 145.633 202.838 151.601 230.324 201.275C230.02 200.686 222.001 204.421 220.438 205.233C216.886 198.047 198.108 160.147 197.682 159.437C197.255 158.726 196.992 158.462 196.119 158.604C193.931 159.394 191.841 160.429 189.887 161.69L130.367 191.084C130.715 190.298 131.108 189.532 131.544 188.79C132.438 187.268 134.995 181.401 135.198 180.914C137.147 180.183 124.663 188.486 198.94 149.693ZM246.178 139.238C246.147 139.017 246.048 138.811 245.894 138.649C245.732 138.406 245.488 138.426 242.951 138.426C242.078 138.426 240.921 138.426 240.921 137.37C240.902 137.135 240.932 136.898 241.009 136.674C241.086 136.451 241.208 136.246 241.367 136.071C241.443 136.629 241.729 137.137 242.167 137.492C242.604 137.846 243.161 138.021 243.722 137.979C244.513 137.861 245.269 137.57 245.935 137.127C245.61 137.31 246.158 138.67 246.361 138.873C246.564 139.076 246.3 139.644 246.219 139.238H246.178ZM248.675 135.848C248.675 136.234 247.924 136.416 247.924 136.376L247.437 134.975C247.945 135.036 248.777 135.401 248.716 135.848H248.675ZM246.909 132.904C247.031 132.912 247.15 132.944 247.26 132.999C247.369 133.053 247.466 133.129 247.546 133.222C247.625 133.314 247.685 133.422 247.722 133.538C247.76 133.655 247.773 133.777 247.762 133.899C247.762 134.224 247.599 134.427 246.909 134.183C246.862 133.757 246.876 133.327 246.95 132.904H246.909ZM245.549 134.265C245.184 134.265 244.392 134.143 244.331 134.265C244.27 134.386 245.874 135.3 246.361 135.604C246.771 135.923 247.1 136.333 247.323 136.802C247.545 137.271 247.654 137.785 247.64 138.304C247.557 138.381 247.449 138.424 247.336 138.424C247.223 138.424 247.114 138.381 247.031 138.304C246.544 137.858 246.564 137.249 246.422 136.68C246.28 136.112 245.975 135.868 245.468 136.234C245.126 136.563 244.709 136.804 244.252 136.935C243.796 137.066 243.314 137.083 242.849 136.985C241.306 136.376 241.509 134.407 242.301 133.148C242.524 132.904 243.052 132.925 243.357 132.884H245.387C245.532 133.331 245.614 133.795 245.63 134.265H245.549ZM245.366 131.95C244.466 131.866 243.557 131.949 242.687 132.194C243.438 131.626 242.93 130.671 242.2 130.164C240.332 128.378 238.708 126.348 236.739 124.724C227.726 116.928 219.606 114.168 208.623 112.544C203.894 106.454 199.712 100.364 191.754 95.1261C191.247 94.781 190.13 93.8878 189.399 93.4615C190.321 93.4402 191.217 93.151 191.977 92.6292C192.271 92.8973 192.632 93.0805 193.022 93.1592C193.412 93.2378 193.816 93.209 194.19 93.0758C194.516 92.893 194.785 92.6238 194.968 92.2979C195.15 91.9719 195.24 91.6019 195.225 91.2285C195.705 91.2679 196.185 91.1634 196.604 90.9284C197.024 90.6933 197.364 90.3384 197.58 89.909C198.027 90.2744 198.514 89.909 198.758 89.4218C199.001 88.9346 198.758 88.3053 198.981 87.676C199.17 87.0468 199.48 86.4606 199.894 85.9505C201.143 83.9434 202.183 81.8145 203 79.5966C203.424 78.7841 203.673 77.8922 203.731 76.9779C206.462 78.9569 209.446 80.5614 212.602 81.7484C214.165 82.3574 215.627 83.1694 217.231 83.7784C224.319 86.4055 231.649 88.3297 239.114 89.5233C240.057 89.915 241.059 90.1482 242.078 90.2135C242.626 103.733 245.224 129.474 245.366 131.95ZM187.369 78.6019C187.514 78.2467 187.534 77.8531 187.427 77.4847C187.321 77.1164 187.093 76.7948 186.781 76.5719C187.654 75.3133 187.207 75.4148 188.709 72.8976C189.176 71.9841 189.684 71.1112 190.232 70.2586C190.78 69.406 191.49 68.9594 192.668 69.5684L199.752 73.4051C200.382 73.7502 203.041 74.684 203.244 75.4351C203.244 78.5613 199.509 85.7881 196.951 87.3106C196.262 87.637 195.499 87.777 194.738 87.7166C195.266 87.7166 194.738 85.5039 194.738 85.3009C194.623 84.9358 194.473 84.5824 194.292 84.2453C194.444 84.3162 194.611 84.3529 194.779 84.3529C194.947 84.3529 195.113 84.3162 195.266 84.2453C196.443 83.7175 196.687 82.4792 196.87 81.3424C197.181 80.0069 197.181 78.6179 196.87 77.2824C196.037 81.8296 195.936 83.3724 195.002 83.6972C194.068 84.022 193.419 83.2303 192.85 82.7025C191.664 81.7713 190.272 81.1378 188.79 80.8552H187.532C187.778 80.4513 187.911 79.9885 187.917 79.5154C188.019 79.3327 187.41 78.3989 187.369 78.6019ZM186.009 92.1217C186.009 92.3856 186.009 92.1217 185.766 93.2585C185.379 93.1237 185.042 92.8751 184.8 92.5454C184.557 92.2157 184.42 91.8204 184.406 91.4112L186.009 92.1217ZM184.426 90.9037V90.0105C185.583 91.1879 185.583 90.4368 185.502 91.4315C185.119 91.3098 184.756 91.1319 184.426 90.9037ZM185.786 57.1245C184.089 55.7829 182.525 54.2805 181.117 52.6382C181.117 52.0292 181.685 49.9992 181.99 48.2128C182.842 44.9851 184.406 42.1228 185.4 38.956C187.575 40.9721 189.852 42.876 192.221 44.6603C191.774 46.4061 191.145 48.1113 190.8 49.8774C190.658 50.5067 190.394 55.9674 190.171 55.9674C189.596 56.2613 189.154 56.7617 188.932 57.3681C187.93 56.979 186.836 56.8943 185.786 57.1245ZM180.934 53.8359C181.036 54.181 184.02 56.82 184.994 57.6929C183.492 59.1951 183.817 58.4034 181.543 59.4387C181.746 59.2763 180.772 54.8103 180.934 53.8359ZM230.202 62.504C230.202 65.6302 229.147 73.4051 232.232 80.9973C229.796 80.3883 227.279 79.759 225.006 79.1297C223.933 74.5668 223.415 69.891 223.463 65.2039C223.497 63.9123 223.612 62.6241 223.808 61.3469C223.727 60.6567 223.3 61.3266 230.202 62.504ZM201.924 57.5508C202.021 55.622 202.519 53.7345 203.386 52.0089C205.503 52.9523 207.539 54.0657 209.476 55.3381C210.166 55.7441 211.993 56.3734 212.257 57.1854C212.521 57.9974 211.892 59.0936 211.709 60.0477C210.877 64.9358 211.176 69.9495 212.582 74.7043L208.136 72.7961C208.806 73.0803 208.948 70.7661 208.786 70.4413L209.334 69.8729C209.458 69.576 209.518 69.256 209.509 68.9343C209.5 68.6126 209.423 68.2964 209.283 68.0066C209.143 67.7169 208.943 67.4602 208.696 67.2535C208.45 67.0468 208.162 66.8948 207.852 66.8076C208.071 66.6122 208.214 66.3465 208.258 66.0565C208.4 65.686 208.444 65.2852 208.386 64.8928C208.328 64.5004 208.17 64.1294 207.927 63.8155C207.685 63.5017 207.366 63.2554 207.001 63.1004C206.635 62.9454 206.237 62.8868 205.842 62.9303C205.972 62.4973 205.977 62.0367 205.857 61.6009C205.738 61.1651 205.498 60.7715 205.167 60.4649C204.835 60.1583 204.423 59.951 203.979 59.8665C203.535 59.782 203.077 59.8237 202.655 59.9868C202.679 59.1175 202.423 58.2636 201.924 57.5508ZM200.828 57.3072C200.503 56.9418 198.007 56.4546 198.291 57.1651C198.094 56.6253 197.747 56.1532 197.29 55.8047C196.833 55.4563 196.286 55.2461 195.714 55.1991C195.141 55.1521 194.567 55.2702 194.059 55.5396C193.552 55.8088 193.132 56.218 192.85 56.7185C192.444 56.0283 191.47 56.3734 191.044 55.8456C190.617 55.3178 191.044 53.3081 191.044 52.557C191.195 49.9593 191.806 47.4092 192.85 45.0257C195.977 47.3805 199.184 49.0857 202.067 51.4608C201.877 52.308 201.769 53.1712 201.742 54.0389C201.661 54.4043 200.747 57.2057 200.828 57.3072ZM223.848 78.8049C223.382 78.8049 219.606 77.323 218.672 76.9779C217.738 76.6328 213.536 75.5569 213.414 74.9479C213.391 74.6913 213.391 74.4331 213.414 74.1765C212.3 69.7171 212.072 65.0821 212.744 60.5349L213.374 57.4696C215.598 58.3901 217.868 59.1964 220.174 59.8853C221.216 60.0494 222.216 60.4149 223.118 60.9612C221.679 66.8596 221.933 73.0439 223.848 78.8049ZM205.578 76.1862C207.081 76.1862 207.608 74.7855 207.791 73.6284C209.349 74.4842 210.996 75.165 212.704 75.6584C213.154 77.9104 213.992 80.0671 215.18 82.0326C213.183 81.2945 211.225 80.4544 209.314 79.5154C203.772 76.7343 203.995 76.5922 203.894 75.8411C204.452 76.0545 205.042 76.1712 205.639 76.1862H205.578ZM213.698 76.3486C219.2 78.7237 224.112 80.2665 223.848 80.2056C224.592 81.2448 225.27 82.3296 225.878 83.4536C226.724 84.6908 227.766 85.7811 228.964 86.6813C224.904 84.834 224.782 85.8896 216.581 82.4386C215.223 80.6321 214.268 78.5555 213.78 76.3486H213.698ZM225.087 80.1244C225.574 80.2868 228.294 80.8349 232.192 81.4845C233.053 84.2897 234.736 86.7719 237.023 88.6098C234.72 88.1718 232.448 87.5818 230.223 86.8437C227.917 85.1465 226.159 82.8104 225.168 80.1244H225.087ZM222.549 59.6417C221.635 59.5862 220.733 59.4017 219.87 59.0936C217.577 58.4695 215.342 57.6477 213.191 56.6373C214.243 52.3226 216.201 48.2813 218.936 44.7821C219.423 44.5791 221.555 45.7768 222.001 45.9798C223.438 46.5641 224.835 47.2423 226.183 48.0098C224.726 51.7985 223.539 55.6855 222.63 59.6417H222.549ZM214.916 49.7353C214.023 51.3593 212.237 54.1607 212.501 56.1095C210.638 55.3163 208.857 54.3441 207.182 53.2066C205.883 52.4961 204.503 51.8262 203.244 50.9939C204.722 46.796 206.898 42.8774 209.679 39.4026C209.679 39.4026 217.799 43.7062 218.307 44.234C218.408 44.3355 215.302 49.2075 214.998 49.7353H214.916ZM202.574 50.8924C192.911 44.4573 193.601 45.0054 193.297 44.5182C192.992 44.031 194.007 42.3055 194.312 41.6762C195.925 38.5301 198.187 35.7624 200.95 33.5562C200.95 33.5562 208.563 38.6312 209.07 39.2199C206.756 42.0213 203.183 47.0557 202.655 50.8924H202.574ZM194.576 39.768C194.373 40.0928 192.363 43.5844 192.708 43.828C190.15 42.4882 188.283 40.0725 185.847 38.5297C186.233 37.8598 186.618 37.1899 186.963 36.4997C189.055 33.2024 191.823 30.3864 195.083 28.2376C196.725 29.8802 198.468 31.4192 200.3 32.8457C198.075 34.8496 196.171 37.1844 194.657 39.768H194.576ZM185.522 37.4944C184.893 36.4388 178.559 31.0796 179.128 30.0849C179.475 29.6561 179.756 29.1769 179.96 28.6639C182.068 25.5007 184.77 22.7774 187.917 20.6454C188.587 20.2191 194.17 27.1008 194.88 27.7301C190.898 30.0056 187.672 33.401 185.603 37.4944H185.522ZM185.969 21.0311C183.379 22.8459 181.155 25.1323 179.412 27.7707C178.89 28.4172 178.522 29.1739 178.336 29.9834C176.597 27.7016 175.01 25.3078 173.586 22.8175C173.508 22.7231 173.466 22.6047 173.466 22.4826C173.466 22.3604 173.508 22.242 173.586 22.1476C175.318 19.4515 177.576 17.1318 180.224 15.3268C180.63 15.0426 180.873 14.5148 181.421 14.5554C181.762 14.6092 182.084 14.749 182.355 14.9614C184.326 16.2634 186.068 17.8821 187.511 19.7522C186.984 19.8943 186.578 20.6048 186.05 21.0311H185.969ZM176.407 28.2376C177.26 29.3338 177.361 29.7804 177.97 30.5518C175.966 34.7514 174.598 39.2258 173.91 43.828C173.91 43.3205 172.875 42.6506 171.089 39.4026C170.162 38.0878 169.418 36.6538 168.876 35.1396C169.458 31.4301 170.732 27.8631 172.632 24.6242C172.802 24.2503 173.013 23.8963 173.261 23.5686C174.174 25.2123 175.227 26.7744 176.407 28.2376ZM178.64 31.2014C182.558 36.52 184.73 37.2914 184.73 38.6515C182.813 42.9833 181.449 47.5393 180.67 52.2119C180.67 51.6435 178.052 49.2278 177.707 48.8421C176.486 47.4388 175.354 45.9608 174.316 44.4167C175.207 39.8502 176.66 35.4114 178.64 31.2014ZM188.526 82.6416H190.13C190.194 82.8822 190.333 83.0962 190.526 83.2531C190.719 83.4099 190.957 83.5014 191.206 83.5145C191.611 83.4904 192.016 83.5385 192.404 83.6566C192.352 83.7691 192.338 83.8955 192.365 84.0166C192.391 84.1376 192.457 84.2467 192.551 84.3271C192.645 84.4076 192.763 84.455 192.887 84.4622C193.01 84.4695 193.133 84.4361 193.236 84.3671C193.054 84.7062 192.917 85.068 192.83 85.443C192.728 85.732 192.728 86.0472 192.83 86.3362C192.865 86.3995 192.914 86.4548 192.971 86.4987C193.029 86.5425 193.095 86.574 193.166 86.5912C193.236 86.6083 193.31 86.6107 193.381 86.5983C193.452 86.5859 193.521 86.5589 193.581 86.5189C193.377 86.9484 193.299 87.4273 193.358 87.8993C193.236 87.3715 191.795 87.8993 191.571 87.8993C191.467 87.562 191.256 87.2673 190.971 87.0589C190.686 86.8505 190.341 86.7394 189.988 86.7422H189.623C189.647 86.0583 189.572 85.3745 189.399 84.7122C189.096 84.1864 188.672 83.7409 188.161 83.413C188.304 83.1743 188.407 82.9137 188.466 82.6416H188.526ZM245.894 44.4776C249.954 48.5376 250.888 55.2569 251.477 60.7176C252.35 68.8376 251.274 81.0176 245.874 87.27C245.195 88.1929 244.22 88.8554 243.112 89.1472C242.004 89.439 240.829 89.3425 239.784 88.8737C231.664 83.9002 230.466 73.2224 230.852 63.7017C230.731 58.5843 231.787 53.5074 233.938 48.8624C234.629 47.2534 235.669 45.8181 236.983 44.6603C238.154 43.5031 239.725 42.8392 241.372 42.8052C243.018 42.7712 244.615 43.3698 245.833 44.4776H245.894ZM237.774 42.4476C232.699 45.5941 230.202 55.6832 229.979 61.7123C227.85 60.9362 225.674 60.2988 223.463 59.8041C224.24 55.6248 225.466 51.5414 227.117 47.6241C229.147 48.3752 230.121 48.5376 232.253 49.3293C232.253 48.5985 232.801 49.3293 227.381 47.0354C228.534 44.9059 230.237 43.1252 232.314 41.8792C234.108 42.2266 235.927 42.437 237.754 42.5085L237.774 42.4476ZM224.904 38.3876C227.062 39.6596 229.332 40.7332 231.684 41.595C231.096 41.3717 228.111 44.0513 226.873 46.67V46.7918C226.873 47.1369 226.569 46.9542 226.345 46.9542C224.133 45.7565 221.697 44.9242 219.525 43.7468C220.998 41.9301 222.578 40.2017 224.254 38.5703L223.97 38.2252C223.585 38.55 218.043 43.3205 218.672 43.7062L210.308 39.0575C211.863 36.9878 213.869 35.3006 216.175 34.1246C214.294 34.6903 212.565 35.676 211.12 37.0072C210.796 37.332 210.349 38.4485 210.105 38.6109C209.517 38.9966 206.979 36.7636 206.208 36.2561C204.726 35.2208 203.244 34.2261 201.782 33.0487C202.413 32.4264 203.167 31.9424 203.995 31.6277C204.826 31.1394 205.695 30.7185 206.593 30.3691C207.527 30.0443 210.653 28.9075 211.608 29.5774C215.874 32.8028 220.306 35.8045 224.884 38.5703L224.904 38.3876ZM211.587 28.7451C210.856 28.1158 207.527 29.1105 206.654 29.3338C204.69 29.8255 202.859 30.7477 201.295 32.0337C199.435 30.7086 197.696 29.2209 196.098 27.588C194.535 26.4512 203.183 22.8987 206.431 24.5024C208.312 25.761 210.037 27.2399 211.567 28.9075L211.587 28.7451ZM206.208 24.0761C203.406 23.0408 197.925 24.8272 195.185 26.4715C188.344 19.8131 188.79 20.3003 188.79 20.1785C191.681 18.3179 195.112 17.4815 198.534 17.8034C201.222 19.7803 203.779 21.9299 206.187 24.2385L206.208 24.0761ZM190.049 12.4239C192.607 12.8299 195.591 15.5501 197.641 17.1132C196.22 16.3215 193.865 17.1132 192.424 17.4786C190.915 18.001 189.466 18.6815 188.1 19.5086C186.607 17.192 184.498 15.3364 182.01 14.1494C183.16 13.4384 184.446 12.9752 185.786 12.7893C187.179 12.4454 188.618 12.3221 190.049 12.4239ZM176.61 12.4848C180.397 10.9603 184.596 10.8023 188.486 12.0382C186 12.2014 183.578 12.8935 181.381 14.0682C179.804 13.2236 178.053 12.7579 176.265 12.7081L176.61 12.4848ZM174.905 13.2765C176.831 12.8963 178.83 13.2512 180.508 14.2712L181.056 14.5554C179.594 14.5554 177.666 16.7478 176.631 17.6816C176.204 18.0673 172.571 21.5589 172.956 22.107C172.429 21.3153 171.962 20.5033 171.414 19.7116C170.865 18.9199 170.541 18.4124 170.114 17.6816C171.331 15.8472 172.975 14.3355 174.905 13.2765ZM165.872 26.3903C165.871 26.8165 165.933 27.2405 166.054 27.6489C166.547 30.119 167.226 32.5483 168.084 34.9163C167.474 37.5126 167.523 40.2202 168.226 42.7927C165.867 37.6695 165.049 31.9705 165.872 26.3903ZM167.191 30.2879C166.715 28.2921 166.464 26.2495 166.44 24.1979C166.639 23.6538 166.891 23.1303 167.191 22.6348C167.922 21.0263 168.791 19.4845 169.79 18.0267C170.358 19.0214 170.805 20.0567 171.353 21.0717C171.901 22.0867 172.774 22.6754 172.083 24.0152C170.448 27.2464 169.182 30.6511 168.308 34.1652C168.049 32.8427 167.676 31.5453 167.191 30.2879ZM168.632 36.7839C174.256 46.9339 173.87 41.8792 173.301 48.5985C173.093 49.8093 173.256 51.0547 173.768 52.1713C171.807 50.1603 170.326 47.7313 169.436 45.0665C168.547 42.4017 168.272 39.5701 168.632 36.7839ZM179.391 58.4643C177.586 56.7161 175.935 54.8143 174.459 52.7803C173.546 51.1259 173.32 49.1796 173.829 47.3602C173.874 46.7467 173.99 46.1404 174.174 45.5535C174.36 46.3794 174.759 47.1422 175.331 47.7662C176.765 49.7056 178.346 51.5312 180.061 53.2269C180.156 53.2886 180.227 53.3799 180.264 53.4865C180.301 53.5931 180.301 53.7089 180.264 53.8156C180.348 55.7805 180.627 57.7321 181.097 59.6417C180.631 59.1181 180.046 58.7142 179.391 58.4643ZM172.124 77.7899C172.391 78.829 172.891 79.7939 173.586 80.6116C173.885 80.9445 174.277 81.179 174.712 81.2841C175.147 81.3892 175.604 81.36 176.022 81.2003C177.108 80.9246 178.121 80.4115 178.985 79.6981C179.525 79.7636 180.07 79.7636 180.609 79.6981C181.194 79.3728 181.705 78.9305 182.112 78.3989C182.799 77.7508 183.387 77.0053 183.857 76.1862C183.12 75.5854 182.617 74.7448 182.436 73.8111C181.645 70.8473 186.496 69.1218 185.4 75.8411C185.035 78.0538 182.863 79.0079 182.863 81.2003C182.863 81.7078 182.863 81.6875 182.518 82.1138C182.298 82.3044 182.122 82.5398 182.002 82.8042C181.881 83.0686 181.819 83.3559 181.819 83.6465C181.819 83.9371 181.881 84.2243 182.002 84.4887C182.122 84.7531 182.298 84.9886 182.518 85.1791C182.14 85.4629 181.852 85.8488 181.686 86.2912C181.521 86.7336 181.485 87.2141 181.584 87.676C181.929 89.097 183.025 89.1173 184.04 89.706C183.909 90.3745 183.848 91.0548 183.857 91.736C183.957 92.1627 184.156 92.5597 184.438 92.8949C184.721 93.23 185.078 93.4937 185.481 93.6645C184.845 95.3956 183.575 96.8201 181.928 97.6494C180.281 98.4786 178.38 98.6506 176.61 98.1305C174.229 97.6771 172.078 96.415 170.52 94.5577C169.654 93.3293 169.141 91.8868 169.037 90.3871C168.933 88.8875 169.243 87.3881 169.932 86.052C170.587 84.3703 171.157 82.6561 171.637 80.9161C171.962 79.9059 172.126 78.851 172.124 77.7899ZM97.9072 47.3399C96.0794 47.5476 94.2338 47.5476 92.4059 47.3399C92.1826 47.3399 91.8984 47.1572 91.8984 46.9136C91.8984 46.67 92.1623 46.5279 92.4059 46.4467C93.827 46.0407 94.7201 46.4467 94.9231 45.9798C93.3745 45.4002 91.9074 44.6223 90.5586 43.6656C90.5912 43.5935 90.6489 43.5358 90.721 43.5032C91.6345 43.016 92.9337 44.031 93.6849 43.5032C93.1774 42.4882 92.4465 42.6506 91.0864 42.001C90.7413 42.001 90.5789 41.2093 91.3706 41.2905C92.4072 41.3343 93.4203 41.6119 94.3344 42.1025C94.3344 41.0672 92.8525 40.9251 92.8525 40.0725C93.3064 40.1123 93.7445 40.2583 94.1314 40.4988C96.0479 41.4307 97.8699 42.5456 99.5718 43.828C99.4094 43.6859 98.4351 45.4317 98.3539 45.5535C98.0286 46.1128 97.8735 46.7547 97.9072 47.4008V47.3399ZM126.002 93.157C130.621 88.5575 135.972 84.7571 141.836 81.9108C143.932 84.5508 146.33 86.9355 148.982 89.0158L149.246 88.6504C143.482 83.9708 139.242 77.6814 137.066 70.5834C135.036 64.0265 136.051 62.7476 134.874 62.6867C128.628 62.712 122.403 61.9689 116.34 60.474C110.983 58.9001 105.988 56.2857 101.642 52.7803C100.061 51.6539 98.9767 49.9588 98.6178 48.0504C98.3335 42.8333 105.824 40.9657 111.204 40.7221C114.228 40.58 117.294 40.7221 120.237 40.5394C134.748 40.0862 148.846 45.4085 159.437 55.3381C166.217 61.8747 173.139 73.872 170.297 82.7837C169.567 84.7116 169.017 86.7027 168.653 88.7316C166.623 99.8357 183.797 103.063 186.537 91.9999C188.039 93.4818 189.075 93.6239 190.983 95.2479C201.823 103.165 205.599 110.717 208.278 113.376C213.223 113.918 218.059 115.19 222.63 117.152C230.119 120.365 236.752 125.287 241.997 131.524C239.723 136.071 239.337 137.249 238.201 137.878C236.777 138.408 235.273 138.689 233.755 138.71C223.933 139.724 214.01 138.474 204.746 135.056C195.463 131.636 186.812 126.696 179.148 120.44C182.516 116.518 185.481 112.268 187.999 107.753H187.613C179.995 120.086 168.859 129.857 155.64 135.807C154.097 136.609 152.337 136.894 150.619 136.62C148.901 136.345 147.317 135.527 146.099 134.285C139.4 128.763 134.183 119.892 130.428 112.077C127.584 107.602 125.364 102.759 123.83 97.6839C123.938 95.9499 124.717 94.326 126.002 93.157ZM129.677 192.85L196.667 159.883C198.416 163.898 200.381 167.815 202.554 171.617C204.706 175.677 218.794 204.543 219.525 205.964C216.153 207.77 212.946 209.869 209.943 212.237C209.229 210.394 208.198 208.69 206.898 207.202C207.359 209.188 208.192 211.069 209.354 212.744C207.236 214.392 205.203 216.147 203.264 218.002C202.533 218.002 202.736 215.485 199.204 211.323C199.935 213.972 201.042 216.501 202.493 218.834C200.486 220.783 198.62 222.873 196.91 225.087C195.231 221.645 193.297 218.334 191.125 215.18C192.575 218.965 194.277 222.647 196.22 226.203C196.22 226.406 192.383 232.435 192.16 232.638C195.388 233.024 199.001 232.415 204.34 235.237C207.345 236.617 205.781 240.555 203.488 241.976C201.245 242.953 198.73 243.112 196.383 242.423L195.977 241.733C198.16 241.905 200.356 241.748 202.493 241.266C204.726 240.373 206.553 237.003 202.493 235.419C197.668 233.918 192.622 233.252 187.572 233.45C184.468 233.573 181.433 234.406 178.701 235.886C176.985 231.829 174.855 227.958 172.347 224.336C173.915 228.475 175.787 232.492 177.95 236.353C175.943 237.723 173.748 238.797 171.434 239.54C169.715 235.473 167.579 231.596 165.06 227.969C166.601 231.952 168.426 235.819 170.52 239.54H166.826C166.254 239.439 165.665 239.563 165.181 239.885C164.918 239.195 164.369 238.058 162.624 234.303C162.076 233.126 161.487 231.786 159.924 231.38C158.254 231.49 156.658 232.114 155.356 233.166C153.55 234.08 152.88 235.399 153.468 237.003C154.707 240.231 156.31 243.418 156.229 243.215C156.798 244.473 157.528 246.016 158.97 246.219C160.411 246.422 165.202 244.595 165.628 242.159C167.471 243.795 169.887 244.635 172.347 244.494C174.131 244.267 175.891 243.879 177.605 243.336C176.529 243.925 177.28 243.56 175.372 244.615C173.91 245.448 173.586 246.97 174.398 248.899C174.398 249.102 176.428 253.75 177.077 254.725C177.869 256.125 178.62 257.465 180.346 257.465C181.462 257.465 181.624 257.201 185.563 255.212C187.227 254.035 186.76 252.593 186.09 250.969C185.346 249.137 184.499 247.347 183.553 245.61C182.924 244.351 182.254 242.788 180.143 242.545C182.306 241.885 184.542 241.496 186.801 241.388C190.861 250.076 190.861 250.34 192.018 251.842L192.18 251.659C192.526 251.314 192.18 250.421 191.795 250.056C191.409 249.69 187.572 241.55 187.451 241.347C189.483 241.318 191.516 241.393 193.541 241.57C194.223 241.55 194.906 241.618 195.571 241.773C196.48 244.082 197.609 246.298 198.94 248.391L199.123 248.229C199.468 247.884 199.123 246.99 198.717 246.605C200.457 248.718 202.379 250.674 204.462 252.451C204.933 253.07 205.551 253.561 206.26 253.88C206.969 254.199 207.747 254.336 208.522 254.278C214.705 252.588 221.217 252.504 227.442 254.035C228.839 254.423 230.103 255.189 231.096 256.247C231.356 256.691 231.517 257.187 231.565 257.7C231.614 258.213 231.55 258.73 231.378 259.215C231.206 259.701 230.93 260.143 230.569 260.51C230.208 260.878 229.771 261.162 229.289 261.343C225.229 263.088 222.651 261.464 215.992 261.85C219.265 263.478 222.425 265.322 225.452 267.372C225.249 267.372 82.2153 337.752 79.5154 338.929C77.1403 332.92 32.4803 244.047 31.6683 241.956C39.7883 237.896 45.8783 234.547 102.109 206.066C101.661 206.901 101.261 207.762 100.912 208.644C100.773 208.895 100.685 209.172 100.653 209.458C100.622 209.743 100.648 210.033 100.729 210.308C100.91 210.57 101.145 210.791 101.418 210.955C101.691 211.12 101.996 211.224 102.312 211.262C101.602 211.08 99.9372 217.596 99.8966 218.185C99.0034 216.703 98.4553 215.81 96.5268 216.155C94.4823 216.613 92.7019 217.861 91.5736 219.626C90.3962 222.915 92.9743 226.021 94.5983 228.477C95.4306 229.796 96.1208 230.994 97.8869 230.69C99.1404 230.407 100.354 229.971 101.5 229.39C101.978 229.208 102.418 228.939 102.8 228.599C104.241 227.076 103.672 225.412 102.8 223.767L102.475 223.158C101.886 221.94 101.074 220.946 100.445 219.748C102.558 221.453 105.18 222.403 107.895 222.448C107.997 222.443 108.099 222.47 108.186 222.524C108.273 222.579 108.341 222.658 108.382 222.752C108.666 223.179 109.62 225.675 110.189 225.675C110.412 225.675 110.432 225.351 110.351 225.168L109.438 222.935C109.641 222.935 109.438 222.935 113.254 223.138C116.827 223.361 118.309 221.412 121.232 220.235C122.348 219.748 123.993 218.997 124.196 217.637C124.164 216.307 123.685 215.026 122.836 214.003C120.684 210.755 120.461 208.887 118.958 207.405C123.312 203.18 126.934 198.262 129.677 192.85ZM181.259 243.6C181.442 243.803 188.506 253.75 184.223 254.968C181.584 256.369 180.325 256.653 179.371 256.085C178.339 255.037 177.537 253.786 177.016 252.411C176.326 250.238 175.737 249.893 174.986 247.843C173.829 245.427 180.021 242.87 181.259 243.6ZM159.112 244.9C157.813 244.534 157.305 242.87 156.615 241.266C156.087 240.068 153.428 236.82 154.057 234.79C154.163 234.467 154.338 234.172 154.569 233.923C154.8 233.674 155.083 233.478 155.397 233.349C156.645 232.447 158.123 231.919 159.66 231.826C160.675 231.968 164.715 239.946 164.816 240.109C166.46 242.91 161.304 244.879 159.112 244.981V244.9ZM102.982 227.624C101.094 229.431 97.2576 231.502 95.593 228.619C92.5277 223.239 90.8834 221.514 92.142 219.748C93.2846 218.693 94.685 217.958 96.202 217.616C98.9628 216.581 99.1861 219.403 101.967 223.93C102.82 225.635 103.409 226.63 102.982 227.705V227.624ZM117.984 209.354C118.268 209.05 118.979 208.177 119.1 208.014C119.506 208.502 121.333 212.582 121.597 213.171C122.471 214.357 122.998 215.762 123.12 217.231C122.937 218.266 122.166 218.713 121.232 219.261C120.339 219.806 119.366 220.21 118.349 220.458C118.315 220.065 118.202 219.683 118.018 219.334C117.833 218.985 117.58 218.677 117.273 218.428C116.908 218.104 115.934 217.779 115.71 217.434L113.863 214.084C115.352 212.641 116.73 211.087 117.984 209.435V209.354ZM111.123 215.18C111.445 215.293 111.791 215.322 112.128 215.265C112.466 215.209 112.783 215.068 113.051 214.856C113.457 215.688 113.782 215.668 114.025 216.886C110.859 216.277 111.123 215.343 111.123 215.18ZM110.351 214.632V215.119C110.338 215.583 110.483 216.037 110.764 216.407C111.045 216.776 111.444 217.038 111.894 217.149C113.792 217.616 115.574 218.466 117.131 219.646C118.958 221.676 114.919 221.433 114.005 221.433C109.072 221.433 106.514 221.758 102.901 220.052C101.521 219.382 101.724 218.428 102.069 217.048C102.486 215.377 103.015 213.736 103.652 212.135C105.093 212.805 106.738 213.049 108.179 213.78C108.853 214.165 109.587 214.433 110.351 214.571V214.632ZM75.1103 355.474H74.9479C73.3529 353.984 72.165 352.111 71.4969 350.033C71.3955 349.83 23.1829 251.416 19.3462 244.169C18.8674 243.507 18.5704 242.732 18.4849 241.92C18.3994 241.107 18.5284 240.287 18.859 239.54C19.6996 238.321 20.9092 237.403 22.31 236.922C26.9993 234.892 100.424 198.595 105.682 196.078C104.606 199.448 103.652 201.721 102.536 205.091C97.6839 207.426 30.5721 241.347 30.024 241.347C30.024 241.57 78.1553 339.437 78.3786 339.843C78.6019 340.249 79.6778 339.843 79.8808 339.843C80.0838 339.843 225.594 268.245 226.731 267.595C226.934 267.595 232.983 271.655 233.389 271.858C234.41 272.556 235.506 273.135 236.658 273.583C239.972 272.248 243.469 271.42 247.031 271.127C250.827 270.965 257.181 271.635 256.816 275.451C256.598 276.535 255.973 277.493 255.07 278.131C253.974 279.044 237.957 286.758 237.754 286.86C239.805 284.286 242.406 282.206 245.366 280.77C247.721 279.592 250.381 279.369 254.116 276.71C255.699 275.695 255.618 274.233 254.603 273.583C248.98 270.112 237.612 271.716 231.522 280.262C73.933 357.93 81.2003 354.357 80.7943 354.54C79.4951 355.25 77.1403 356.651 75.1103 355.474ZM253.426 282.576C250.523 284.038 238.505 289.844 235.379 291.407C235.772 290.133 236.346 288.923 237.084 287.814C245.204 284.018 248.168 282.536 251.294 280.77C251.538 280.973 253.04 282.333 253.385 282.576H253.426ZM78.4599 388.136C78.6832 384.259 79.6576 358.153 79.6576 358.153C79.5765 357.676 79.5765 357.189 79.6576 356.712C79.7996 356.123 80.2868 356.001 81.6876 355.311L230.669 281.906L228.923 285.398C219.078 290.189 87.1482 355.717 86.3971 355.717C82.1138 357.605 83.7785 356.448 83.4537 361.523V363.046C83.4537 364.304 83.2303 365.542 83.2506 366.801C83.2506 367.187 222.346 298.552 222.549 298.451C222.479 298.607 222.443 298.777 222.443 298.948C222.443 299.12 222.479 299.289 222.549 299.446C223.036 300.928 225.797 300.907 226.995 300.928C228.803 300.985 230.597 300.587 232.212 299.77C234.932 297.071 234.81 294.411 235.379 292.442C239.601 290.311 238.363 290.859 255.801 282.292C256.024 282.292 262.317 284.911 263.21 285.175C263.108 286.031 263.108 286.896 263.21 287.753C263.308 288.637 263.6 289.49 264.063 290.25C265.059 291.847 266.307 293.273 267.757 294.472C267.575 294.533 82.195 385.924 78.4193 388.055L78.4599 388.136ZM89.7872 363.614C89.8299 362.764 89.7685 361.912 89.6045 361.076C89.5839 360.997 89.5839 360.913 89.6045 360.833C89.4218 360.569 226.325 293.153 226.081 293.295C225.463 294.661 224.664 295.937 223.706 297.091L89.7872 363.614ZM89.3812 360.305L89.1376 358.092C89.0158 357.585 78.9876 362.538 227.279 290.006C227.015 290.954 226.64 291.867 226.163 292.726C225.919 292.747 90.4368 359.574 89.3203 360.224L89.3812 360.305ZM84.1844 360.305C84.9558 359.919 87.8587 358.437 88.488 358.052V360.67C86.8438 361.381 83.9002 362.7 83.6566 362.7V360.386C83.863 360.355 84.0666 360.307 84.2656 360.244L84.1844 360.305ZM84.4078 357.585C84.9558 357.138 87.2904 356.286 88.2444 355.758L88.3866 357.565C88.3866 357.768 88.5286 357.565 84.1844 359.899C84.1439 358.011 84.022 357.788 84.3671 357.463L84.4078 357.585ZM84.1844 363.106C85.7739 362.456 87.3259 361.717 88.8331 360.894C88.9549 361.868 89.0564 362.843 89.1376 363.817C88.9955 363.817 83.7175 366.375 83.6363 366.436V363.269C83.7988 362.944 83.9408 363.005 84.1438 362.985L84.1844 363.106ZM89.1782 357.159V355.25C89.7467 355.25 223.605 289.255 228.883 286.758C228.396 288.037 228.274 288.342 228.071 288.788C207.852 297.862 109.397 347.232 89.1376 357.037L89.1782 357.159ZM321.146 327.135C320.476 328.921 322.912 330.606 324.374 331.56C322.649 332.088 319.949 332.961 319.38 334.707C319.177 335.661 320.091 336.737 320.822 337.528C321.309 338.056 324.882 342.482 324.699 342.299C319.847 340.736 305.597 334.93 305.8 335.011C304.314 334.539 302.934 333.78 301.74 332.778C299.973 330.322 304.318 327.399 307.058 324.191C308.479 322.709 308.54 322.161 309.961 320.639C311.138 318.832 313.777 321.37 326.1 322.912C324.8 323.988 323.197 323.927 321.106 327.013L321.146 327.135ZM341.629 324.597C340.208 324.597 298.613 315.747 295.873 314.447C295.548 314.305 295.548 314.305 295.548 314.001C295.65 313.25 303.932 288.849 306.165 283.287C306.494 282.266 307.023 281.321 307.72 280.506C308.417 279.69 309.268 279.021 310.225 278.537C312.952 277.185 315.891 276.313 318.913 275.959C323.321 275.093 327.774 274.476 332.25 274.111C334.179 274.111 335.295 276.425 336.473 278.171C340.528 284.827 343.208 292.228 344.355 299.937C345.502 307.646 345.093 315.506 343.152 323.055C342.827 324.273 342.218 324.476 341.588 324.476L341.629 324.597ZM363.959 316.965C370.211 319.766 370.496 325.288 365.421 329.693C363.434 332.136 361.255 334.417 358.904 336.513C359.309 334.794 359.853 333.111 360.528 331.479C361.523 329.104 361.381 327.927 358.498 327.927C356.605 328.035 354.713 327.694 352.977 326.932L353.565 326.303C354.702 325.105 356.123 323.603 355.941 321.877C355.758 320.152 353.728 319.177 349.688 318.609C354.702 311.829 354.032 311.565 354.702 311.829C357.844 313.343 360.906 315.017 363.878 316.843L363.959 316.965ZM360.305 280.425C360.697 281.938 360.975 283.478 361.137 285.033C360.88 284.051 360.327 283.173 359.554 282.515C359.42 282.378 359.248 282.284 359.06 282.244C358.872 282.205 358.677 282.221 358.498 282.292C357.869 282.617 357.625 283.794 357.646 284.525C355.816 293.278 352.833 301.749 348.775 309.717C347.354 312.113 347.435 312.559 347.557 312.864C347.963 314.163 349.972 312.681 351.129 312.214L353.444 310.915C350.711 315.227 347.665 319.332 344.329 323.197C346.238 314.566 346.479 305.65 345.039 296.928C343.467 288.632 340.016 280.806 334.95 274.05C342.8 273.599 350.676 274.008 358.437 275.268C359.447 276.799 360.061 278.557 360.224 280.384L360.305 280.425ZM346.684 260.023C351.422 263.76 355.253 268.521 357.889 273.949C343.176 271.799 328.191 272.398 313.696 275.715C311.252 276.231 308.997 277.411 307.18 279.125C302.897 285.073 302.755 289.275 301.09 294.026C298.451 301.658 296.441 307.85 294.736 313.514C285.824 309.454 265.037 294.208 264.286 286.88C264.428 282.82 268.752 268.975 277.481 261.931C281.439 258.682 285.833 256.003 290.534 253.974C290.072 254.408 289.709 254.936 289.469 255.522C289.229 256.109 289.118 256.74 289.143 257.373C289.168 258.006 289.328 258.627 289.614 259.193C289.899 259.758 290.303 260.256 290.798 260.652L293.011 263.515C293.339 263.957 293.754 264.328 294.23 264.605C294.706 264.882 295.234 265.059 295.781 265.126C296.328 265.192 296.883 265.147 297.412 264.992C297.94 264.837 298.432 264.576 298.857 264.225C299.298 263.898 299.668 263.486 299.945 263.012C300.222 262.538 300.4 262.013 300.468 261.468C300.537 260.924 300.494 260.371 300.342 259.843C300.191 259.316 299.934 258.825 299.588 258.399L297.558 255.293C297.193 254.529 296.616 253.886 295.897 253.44C295.177 252.993 294.344 252.763 293.498 252.776C301.858 249.711 310.81 248.607 319.664 249.548C318.84 253.493 318.337 257.499 318.162 261.525C318.04 263.921 320.334 263.271 320.375 261.282C320.52 257.363 320.961 253.461 321.694 249.609C326.262 251.172 328.272 249.954 339.234 254.968C337.874 256.485 336.62 258.093 335.478 259.779V259.84C335.255 260.246 334.869 261.038 335.641 261.566C336.412 262.094 337.853 260.388 338.34 259.719C339.162 258.418 340.063 257.171 341.04 255.983C344.227 258.155 345.1 258.724 346.603 259.982L346.684 260.023Z" fill="#303030"/>
<path d="M363.878 316.842C364 316.923 364 316.923 363.878 316.842V316.842ZM272.244 275.207L271.898 276.283C274.7 277.55 277.338 279.151 279.755 281.053L280.445 279.997C277.852 278.171 275.108 276.568 272.244 275.207ZM281.013 272.568C279.653 271.756 278.983 271.126 276.71 269.563C276.292 269.338 275.898 269.073 275.532 268.771L274.842 269.786C275.776 270.598 277.055 271.207 278.537 272.365C279.677 273.255 280.87 274.075 282.109 274.821C282.353 274.821 282.109 274.983 282.942 273.806C282.33 273.347 281.685 272.933 281.013 272.568ZM334.788 308.722C329.063 299.871 324.09 290.452 319.299 281.297C318.994 280.728 318.69 280.464 318.345 280.464C317.513 280.586 317.025 282.291 316.619 284.098C316.619 285.681 312.194 295.263 309.535 304.804C309.007 306.59 310.144 307.301 311.179 307.727C318.683 311.462 326.837 313.716 335.194 314.365C335.904 314.365 336.777 314.365 337.061 313.878C337.122 313.728 337.142 313.565 337.121 313.405C337.1 313.245 337.037 313.093 336.94 312.965C336.449 311.446 335.723 310.014 334.788 308.722ZM327.926 291.853C328.353 292.908 329.956 292.949 331.986 293.598C333.176 294.08 334.469 294.248 335.742 294.086C336.128 293.964 336.31 293.781 336.27 293.538C336.27 292.888 334.037 292.543 334.037 292.543L332.961 292.421C332.344 292.471 331.723 292.398 331.134 292.206C330.545 292.014 330 291.708 329.53 291.304C328.617 289.741 329.104 288.909 328.982 287.244C328.982 284.118 329.124 283.57 328.475 282.433C328.15 282.088 327.581 281.764 327.399 282.779C327.33 285.812 327.507 288.847 327.926 291.853ZM352.307 281.865C352.083 281.256 351.474 279.835 350.886 280.139C350.297 280.444 350.886 281.804 351.799 284.199C352.26 285.201 352.555 286.27 352.672 287.366C352.672 288.564 351.637 289.173 350.642 289.823C349.911 290.066 348.612 290.533 348.287 291.284C348.278 291.401 348.302 291.518 348.356 291.622C348.41 291.726 348.491 291.813 348.592 291.873C349.682 291.791 350.725 291.396 351.596 290.736C352.449 290.35 353.971 289.356 354.134 288.361C353.803 286.127 353.189 283.944 352.307 281.865Z" fill="#303030"/>
</svg>
