<svg width="18" height="18" viewBox="0 0 18 18" fill="none" xmlns="http://www.w3.org/2000/svg">
<g clip-path="url(#clip0_5605_9447)">
<path d="M11.1741 7.125C11.1741 7.49775 10.8719 7.8 10.4991 7.8H9.82414V6.44925H10.4991C10.8719 6.44925 11.1741 6.7515 11.1741 7.12425V7.125ZM17.1809 8.25C17.1809 10.4535 16.3229 12.525 14.7644 14.0835L11.7711 16.8503C11.0196 17.586 10.0056 18 8.93164 18C7.85764 18 6.84439 17.5868 6.07564 16.836L3.11914 14.1038C1.53964 12.525 0.681641 10.4535 0.681641 8.25C0.681641 6.0465 1.53964 3.97425 3.09814 2.4165C4.65664 0.85875 6.72814 0 8.93164 0C11.1351 0 13.2066 0.85875 14.7644 2.4165C16.3229 3.97425 17.1809 6.04575 17.1809 8.25ZM7.49914 5.85C7.49914 5.5185 7.23064 5.25 6.89914 5.25C6.56764 5.25 6.29914 5.5185 6.29914 5.85V10.65C6.29914 10.9815 6.56764 11.25 6.89914 11.25C7.23064 11.25 7.49914 10.9815 7.49914 10.65V5.85ZM12.3741 7.125C12.3741 6.08925 11.5349 5.25 10.4991 5.25H9.22414C8.89264 5.25 8.62414 5.5185 8.62414 5.85V10.65C8.62414 10.9815 8.89264 11.25 9.22414 11.25C9.55564 11.25 9.82414 10.9815 9.82414 10.65V9H10.4991C11.5349 9 12.3741 8.16075 12.3741 7.125Z" fill="#7C7C7C"/>
</g>
<defs>
<clipPath id="clip0_5605_9447">
<rect width="18" height="18" fill="white"/>
</clipPath>
</defs>
</svg>
