<svg width="18" height="18" viewBox="0 0 18 18" fill="none" xmlns="http://www.w3.org/2000/svg">
<g clip-path="url(#clip0_5605_9452)">
<path d="M18 14.25H11.3625C11.1037 13.7081 10.6669 13.2713 10.125 13.0125V10.5H14.25C14.8467 10.5 15.419 10.2629 15.841 9.84099C16.2629 9.41903 16.5 8.84674 16.5 8.25V6.75H15.75V2.625C15.75 1.92881 15.4734 1.26113 14.9812 0.768845C14.4889 0.276562 13.8212 0 13.125 0H4.875C4.17881 0 3.51113 0.276562 3.01884 0.768845C2.52656 1.26113 2.25 1.92881 2.25 2.625V6.75H1.5V8.25C1.5 8.84674 1.73705 9.41903 2.15901 9.84099C2.58097 10.2629 3.15326 10.5 3.75 10.5H7.875V13.0125C7.33309 13.2713 6.8963 13.7081 6.6375 14.25H0V16.5H6.6375C6.84839 16.9484 7.18252 17.3275 7.60087 17.5931C8.01921 17.8586 8.50449 17.9996 9 17.9996C9.49551 17.9996 9.98079 17.8586 10.3991 17.5931C10.8175 17.3275 11.1516 16.9484 11.3625 16.5H18V14.25ZM7.0605 6.75H4.5V2.625C4.5 2.52554 4.53951 2.43016 4.60984 2.35984C4.68016 2.28951 4.77554 2.25 4.875 2.25H13.125C13.2245 2.25 13.3198 2.28951 13.3902 2.35984C13.4605 2.43016 13.5 2.52554 13.5 2.625V6.75H10.9395L10.1895 7.5H7.8105L7.0605 6.75Z" fill="#7C7C7C"/>
</g>
<defs>
<clipPath id="clip0_5605_9452">
<rect width="18" height="18" fill="white"/>
</clipPath>
</defs>
</svg>
