<svg width="19" height="18" viewBox="0 0 19 18" fill="none" xmlns="http://www.w3.org/2000/svg">
<path d="M6.96094 0H3.86719C2.84155 0 1.85791 0.395088 1.13267 1.09835C0.407435 1.80161 0 2.75544 0 3.75L0 14.25C0 14.7425 0.100028 15.2301 0.294372 15.6851C0.488716 16.14 0.773571 16.5534 1.13267 16.9016C1.85791 17.6049 2.84155 18 3.86719 18H10.8281V3.75C10.8281 3.25754 10.7281 2.76991 10.5338 2.31494C10.3394 1.85997 10.0546 1.44657 9.69545 1.09835C9.33635 0.75013 8.91003 0.473907 8.44085 0.285452C7.97166 0.0969966 7.46878 0 6.96094 0ZM3.86719 14.25H3.09375C2.88862 14.25 2.69189 14.171 2.54685 14.0303C2.4018 13.8897 2.32031 13.6989 2.32031 13.5C2.32031 13.3011 2.4018 13.1103 2.54685 12.9697C2.69189 12.829 2.88862 12.75 3.09375 12.75H3.86719C4.07232 12.75 4.26904 12.829 4.41409 12.9697C4.55914 13.1103 4.64062 13.3011 4.64062 13.5C4.64062 13.6989 4.55914 13.8897 4.41409 14.0303C4.26904 14.171 4.07232 14.25 3.86719 14.25ZM3.86719 11.25H3.09375C2.88862 11.25 2.69189 11.171 2.54685 11.0303C2.4018 10.8897 2.32031 10.6989 2.32031 10.5C2.32031 10.3011 2.4018 10.1103 2.54685 9.96967C2.69189 9.82902 2.88862 9.75 3.09375 9.75H3.86719C4.07232 9.75 4.26904 9.82902 4.41409 9.96967C4.55914 10.1103 4.64062 10.3011 4.64062 10.5C4.64062 10.6989 4.55914 10.8897 4.41409 11.0303C4.26904 11.171 4.07232 11.25 3.86719 11.25ZM3.86719 8.25H3.09375C2.88862 8.25 2.69189 8.17098 2.54685 8.03033C2.4018 7.88968 2.32031 7.69891 2.32031 7.5C2.32031 7.30109 2.4018 7.11032 2.54685 6.96967C2.69189 6.82902 2.88862 6.75 3.09375 6.75H3.86719C4.07232 6.75 4.26904 6.82902 4.41409 6.96967C4.55914 7.11032 4.64062 7.30109 4.64062 7.5C4.64062 7.69891 4.55914 7.88968 4.41409 8.03033C4.26904 8.17098 4.07232 8.25 3.86719 8.25ZM3.86719 5.25H3.09375C2.88862 5.25 2.69189 5.17098 2.54685 5.03033C2.4018 4.88968 2.32031 4.69891 2.32031 4.5C2.32031 4.30109 2.4018 4.11032 2.54685 3.96967C2.69189 3.82902 2.88862 3.75 3.09375 3.75H3.86719C4.07232 3.75 4.26904 3.82902 4.41409 3.96967C4.55914 4.11032 4.64062 4.30109 4.64062 4.5C4.64062 4.69891 4.55914 4.88968 4.41409 5.03033C4.26904 5.17098 4.07232 5.25 3.86719 5.25ZM7.73438 14.25H6.96094C6.75581 14.25 6.55908 14.171 6.41403 14.0303C6.26899 13.8897 6.1875 13.6989 6.1875 13.5C6.1875 13.3011 6.26899 13.1103 6.41403 12.9697C6.55908 12.829 6.75581 12.75 6.96094 12.75H7.73438C7.9395 12.75 8.13623 12.829 8.28128 12.9697C8.42633 13.1103 8.50781 13.3011 8.50781 13.5C8.50781 13.6989 8.42633 13.8897 8.28128 14.0303C8.13623 14.171 7.9395 14.25 7.73438 14.25ZM7.73438 11.25H6.96094C6.75581 11.25 6.55908 11.171 6.41403 11.0303C6.26899 10.8897 6.1875 10.6989 6.1875 10.5C6.1875 10.3011 6.26899 10.1103 6.41403 9.96967C6.55908 9.82902 6.75581 9.75 6.96094 9.75H7.73438C7.9395 9.75 8.13623 9.82902 8.28128 9.96967C8.42633 10.1103 8.50781 10.3011 8.50781 10.5C8.50781 10.6989 8.42633 10.8897 8.28128 11.0303C8.13623 11.171 7.9395 11.25 7.73438 11.25ZM7.73438 8.25H6.96094C6.75581 8.25 6.55908 8.17098 6.41403 8.03033C6.26899 7.88968 6.1875 7.69891 6.1875 7.5C6.1875 7.30109 6.26899 7.11032 6.41403 6.96967C6.55908 6.82902 6.75581 6.75 6.96094 6.75H7.73438C7.9395 6.75 8.13623 6.82902 8.28128 6.96967C8.42633 7.11032 8.50781 7.30109 8.50781 7.5C8.50781 7.69891 8.42633 7.88968 8.28128 8.03033C8.13623 8.17098 7.9395 8.25 7.73438 8.25ZM7.73438 5.25H6.96094C6.75581 5.25 6.55908 5.17098 6.41403 5.03033C6.26899 4.88968 6.1875 4.69891 6.1875 4.5C6.1875 4.30109 6.26899 4.11032 6.41403 3.96967C6.55908 3.82902 6.75581 3.75 6.96094 3.75H7.73438C7.9395 3.75 8.13623 3.82902 8.28128 3.96967C8.42633 4.11032 8.50781 4.30109 8.50781 4.5C8.50781 4.69891 8.42633 4.88968 8.28128 5.03033C8.13623 5.17098 7.9395 5.25 7.73438 5.25ZM14.6953 3.75H12.375V18H14.6953C15.7206 17.9988 16.7035 17.6033 17.4285 16.9003C18.1534 16.1973 18.5613 15.2442 18.5625 14.25V7.5C18.5613 6.5058 18.1534 5.55267 17.4285 4.84966C16.7035 4.14666 15.7206 3.75119 14.6953 3.75ZM15.4688 14.25C15.3158 14.25 15.1662 14.206 15.0391 14.1236C14.9119 14.0412 14.8127 13.9241 14.7542 13.787C14.6956 13.65 14.6803 13.4992 14.7102 13.3537C14.74 13.2082 14.8137 13.0746 14.9218 12.9697C15.03 12.8648 15.1678 12.7934 15.3179 12.7644C15.4679 12.7355 15.6234 12.7503 15.7647 12.8071C15.9061 12.8639 16.0269 12.96 16.1118 13.0833C16.1968 13.2067 16.2422 13.3517 16.2422 13.5C16.2422 13.6989 16.1607 13.8897 16.0157 14.0303C15.8706 14.171 15.6739 14.25 15.4688 14.25ZM15.4688 11.25C15.3158 11.25 15.1662 11.206 15.0391 11.1236C14.9119 11.0412 14.8127 10.9241 14.7542 10.787C14.6956 10.65 14.6803 10.4992 14.7102 10.3537C14.74 10.2082 14.8137 10.0746 14.9218 9.96967C15.03 9.86478 15.1678 9.79335 15.3179 9.76441C15.4679 9.73547 15.6234 9.75032 15.7647 9.80709C15.9061 9.86386 16.0269 9.95998 16.1118 10.0833C16.1968 10.2067 16.2422 10.3517 16.2422 10.5C16.2422 10.6989 16.1607 10.8897 16.0157 11.0303C15.8706 11.171 15.6739 11.25 15.4688 11.25ZM15.4688 8.25C15.3158 8.25 15.1662 8.20601 15.0391 8.1236C14.9119 8.04119 14.8127 7.92406 14.7542 7.78701C14.6956 7.64997 14.6803 7.49917 14.7102 7.35368C14.74 7.2082 14.8137 7.07456 14.9218 6.96967C15.03 6.86478 15.1678 6.79335 15.3179 6.76441C15.4679 6.73547 15.6234 6.75032 15.7647 6.80709C15.9061 6.86386 16.0269 6.95999 16.1118 7.08332C16.1968 7.20666 16.2422 7.35166 16.2422 7.5C16.2422 7.69891 16.1607 7.88968 16.0157 8.03033C15.8706 8.17098 15.6739 8.25 15.4688 8.25Z" fill="#7C7C7C"/>
</svg>
