<svg width="24" height="24" viewBox="0 0 24 24" fill="none" xmlns="http://www.w3.org/2000/svg">
<path d="M12.0051 12.308C15.6161 12.287 17.5601 10.337 17.6271 6.637C17.5651 3.077 15.5161 1.023 11.9931 1C8.43209 1.022 6.37109 3.122 6.37109 6.672C6.37109 10.222 8.43309 12.287 12.0051 12.308Z" fill="#7C7C7C"/>
<path d="M11.9942 13.6602C6.66624 13.6942 3.79924 16.5712 3.70324 21.9822C3.69924 22.2502 3.80224 22.5092 3.99024 22.7002C4.17824 22.8912 4.43524 22.9992 4.70324 22.9992H19.2982C19.5662 22.9992 19.8232 22.8912 20.0112 22.7002C20.1992 22.5092 20.3022 22.2502 20.2982 21.9822C20.2062 16.6492 17.2622 13.6942 11.9942 13.6602Z" fill="#7C7C7C"/>
</svg>
